%TF.GenerationSoftware,KiCad,Pcbnew,8.0.7*%
%TF.CreationDate,2025-03-21T18:26:34+05:30*%
%TF.ProjectId,ESP32,45535033-322e-46b6-9963-61645f706362,rev?*%
%TF.SameCoordinates,Original*%
%TF.FileFunction,Drillmap*%
%TF.FilePolarity,Positive*%
%FSLAX45Y45*%
G04 Gerber Fmt 4.5, Leading zero omitted, Abs format (unit mm)*
G04 Created by KiCad (PCBNEW 8.0.7) date 2025-03-21 18:26:34*
%MOMM*%
%LPD*%
G01*
G04 APERTURE LIST*
%ADD10C,0.050000*%
%ADD11C,0.200000*%
%ADD12C,0.100000*%
G04 APERTURE END LIST*
D10*
X11350000Y-7080000D02*
X13150000Y-7080000D01*
X13150000Y-9630000D01*
X11350000Y-9630000D01*
X11350000Y-7080000D01*
D11*
D12*
X11490000Y-7790000D02*
X11510000Y-7810000D01*
X11510000Y-7790000D02*
X11490000Y-7810000D01*
X11520000Y-9440000D02*
X11540000Y-9460000D01*
X11540000Y-9440000D02*
X11520000Y-9460000D01*
X11520000Y-9490000D02*
X11540000Y-9510000D01*
X11540000Y-9490000D02*
X11520000Y-9510000D01*
X11520000Y-9540000D02*
X11540000Y-9560000D01*
X11540000Y-9540000D02*
X11520000Y-9560000D01*
X11570000Y-7790000D02*
X11590000Y-7810000D01*
X11590000Y-7790000D02*
X11570000Y-7810000D01*
X11590000Y-9390000D02*
X11610000Y-9410000D01*
X11610000Y-9390000D02*
X11590000Y-9410000D01*
X11590000Y-9440000D02*
X11610000Y-9460000D01*
X11610000Y-9440000D02*
X11590000Y-9460000D01*
X11590000Y-9490000D02*
X11610000Y-9510000D01*
X11610000Y-9490000D02*
X11590000Y-9510000D01*
X11650000Y-7790000D02*
X11670000Y-7810000D01*
X11670000Y-7790000D02*
X11650000Y-7810000D01*
X11652000Y-8850000D02*
X11672000Y-8870000D01*
X11672000Y-8850000D02*
X11652000Y-8870000D01*
X11699000Y-8850000D02*
X11719000Y-8870000D01*
X11719000Y-8850000D02*
X11699000Y-8870000D01*
X11718949Y-8462759D02*
X11738949Y-8482759D01*
X11738949Y-8462759D02*
X11718949Y-8482759D01*
X11720018Y-8507747D02*
X11740018Y-8527747D01*
X11740018Y-8507747D02*
X11720018Y-8527747D01*
X11730000Y-7790000D02*
X11750000Y-7810000D01*
X11750000Y-7790000D02*
X11730000Y-7810000D01*
X11740586Y-8423302D02*
X11760586Y-8443302D01*
X11760586Y-8423302D02*
X11740586Y-8443302D01*
X11744000Y-8850000D02*
X11764000Y-8870000D01*
X11764000Y-8850000D02*
X11744000Y-8870000D01*
X11780000Y-8320000D02*
X11800000Y-8340000D01*
X11800000Y-8320000D02*
X11780000Y-8340000D01*
X11780000Y-8387000D02*
X11800000Y-8407000D01*
X11800000Y-8387000D02*
X11780000Y-8407000D01*
X11789001Y-8850000D02*
X11809001Y-8870000D01*
X11809001Y-8850000D02*
X11789001Y-8870000D01*
X11790224Y-8254776D02*
X11810224Y-8274776D01*
X11810224Y-8254776D02*
X11790224Y-8274776D01*
X11870000Y-7790000D02*
X11890000Y-7810000D01*
X11890000Y-7790000D02*
X11870000Y-7810000D01*
X11875000Y-8850000D02*
X11895000Y-8870000D01*
X11895000Y-8850000D02*
X11875000Y-8870000D01*
X11920000Y-8142756D02*
X11940000Y-8162756D01*
X11940000Y-8142756D02*
X11920000Y-8162756D01*
X11929559Y-7992772D02*
X11949559Y-8012772D01*
X11949559Y-7992772D02*
X11929559Y-8012772D01*
X11933000Y-8904000D02*
X11953000Y-8924000D01*
X11953000Y-8904000D02*
X11933000Y-8924000D01*
X11936649Y-8043351D02*
X11956649Y-8063351D01*
X11956649Y-8043351D02*
X11936649Y-8063351D01*
X11940000Y-7949000D02*
X11960000Y-7969000D01*
X11960000Y-7949000D02*
X11940000Y-7969000D01*
X11948151Y-8104256D02*
X11968151Y-8124256D01*
X11968151Y-8104256D02*
X11948151Y-8124256D01*
X11950000Y-7790000D02*
X11970000Y-7810000D01*
X11970000Y-7790000D02*
X11950000Y-7810000D01*
X11970466Y-9000467D02*
X11990466Y-9020467D01*
X11990466Y-9000467D02*
X11970466Y-9020467D01*
X11980000Y-9058000D02*
X12000000Y-9078000D01*
X12000000Y-9058000D02*
X11980000Y-9078000D01*
X12030000Y-7790000D02*
X12050000Y-7810000D01*
X12050000Y-7790000D02*
X12030000Y-7810000D01*
X12070000Y-9273500D02*
X12090000Y-9293500D01*
X12090000Y-9273500D02*
X12070000Y-9293500D01*
X12110000Y-7790000D02*
X12130000Y-7810000D01*
X12130000Y-7790000D02*
X12110000Y-7810000D01*
X12122000Y-9116000D02*
X12142000Y-9136000D01*
X12142000Y-9116000D02*
X12122000Y-9136000D01*
X12182000Y-7934000D02*
X12202000Y-7954000D01*
X12202000Y-7934000D02*
X12182000Y-7954000D01*
X12190000Y-7790000D02*
X12210000Y-7810000D01*
X12210000Y-7790000D02*
X12190000Y-7810000D01*
X12197000Y-9058000D02*
X12217000Y-9078000D01*
X12217000Y-9058000D02*
X12197000Y-9078000D01*
X12198000Y-9272000D02*
X12218000Y-9292000D01*
X12218000Y-9272000D02*
X12198000Y-9292000D01*
X12251741Y-9387259D02*
X12271741Y-9407259D01*
X12271741Y-9387259D02*
X12251741Y-9407259D01*
X12270000Y-7790000D02*
X12290000Y-7810000D01*
X12290000Y-7790000D02*
X12270000Y-7810000D01*
X12273500Y-8990000D02*
X12293500Y-9010000D01*
X12293500Y-8990000D02*
X12273500Y-9010000D01*
X12340000Y-7910000D02*
X12360000Y-7930000D01*
X12360000Y-7910000D02*
X12340000Y-7930000D01*
X12350000Y-7790000D02*
X12370000Y-7810000D01*
X12370000Y-7790000D02*
X12350000Y-7810000D01*
X12350000Y-9006000D02*
X12370000Y-9026000D01*
X12370000Y-9006000D02*
X12350000Y-9026000D01*
X12380000Y-7880000D02*
X12400000Y-7900000D01*
X12400000Y-7880000D02*
X12380000Y-7900000D01*
X12380000Y-7940000D02*
X12400000Y-7960000D01*
X12400000Y-7940000D02*
X12380000Y-7960000D01*
X12387000Y-8966000D02*
X12407000Y-8986000D01*
X12407000Y-8966000D02*
X12387000Y-8986000D01*
X12406000Y-9113000D02*
X12426000Y-9133000D01*
X12426000Y-9113000D02*
X12406000Y-9133000D01*
X12430000Y-7790000D02*
X12450000Y-7810000D01*
X12450000Y-7790000D02*
X12430000Y-7810000D01*
X12482000Y-8898000D02*
X12502000Y-8918000D01*
X12502000Y-8898000D02*
X12482000Y-8918000D01*
X12510000Y-7790000D02*
X12530000Y-7810000D01*
X12530000Y-7790000D02*
X12510000Y-7810000D01*
X12537000Y-8507000D02*
X12557000Y-8527000D01*
X12557000Y-8507000D02*
X12537000Y-8527000D01*
X12560000Y-8160000D02*
X12580000Y-8180000D01*
X12580000Y-8160000D02*
X12560000Y-8180000D01*
X12582000Y-8754000D02*
X12602000Y-8774000D01*
X12602000Y-8754000D02*
X12582000Y-8774000D01*
X12587551Y-8546998D02*
X12607551Y-8566998D01*
X12607551Y-8546998D02*
X12587551Y-8566998D01*
X12590000Y-7790000D02*
X12610000Y-7810000D01*
X12610000Y-7790000D02*
X12590000Y-7810000D01*
X12595616Y-8702026D02*
X12615616Y-8722026D01*
X12615616Y-8702026D02*
X12595616Y-8722026D01*
X12608800Y-8604553D02*
X12628800Y-8624553D01*
X12628800Y-8604553D02*
X12608800Y-8624553D01*
X12608800Y-8659000D02*
X12628800Y-8679000D01*
X12628800Y-8659000D02*
X12608800Y-8679000D01*
X12640000Y-8110000D02*
X12660000Y-8130000D01*
X12660000Y-8110000D02*
X12640000Y-8130000D01*
X12650000Y-7990000D02*
X12670000Y-8010000D01*
X12670000Y-7990000D02*
X12650000Y-8010000D01*
X12670000Y-7790000D02*
X12690000Y-7810000D01*
X12690000Y-7790000D02*
X12670000Y-7810000D01*
X12670000Y-9240000D02*
X12690000Y-9260000D01*
X12690000Y-9240000D02*
X12670000Y-9260000D01*
X12671000Y-9400500D02*
X12691000Y-9420500D01*
X12691000Y-9400500D02*
X12671000Y-9420500D01*
X12690000Y-8130000D02*
X12710000Y-8150000D01*
X12710000Y-8130000D02*
X12690000Y-8150000D01*
X12710000Y-7990000D02*
X12730000Y-8010000D01*
X12730000Y-7990000D02*
X12710000Y-8010000D01*
X12740000Y-9270000D02*
X12760000Y-9290000D01*
X12760000Y-9270000D02*
X12740000Y-9290000D01*
X12780000Y-9120000D02*
X12800000Y-9140000D01*
X12800000Y-9120000D02*
X12780000Y-9140000D01*
X12780000Y-9180000D02*
X12800000Y-9200000D01*
X12800000Y-9180000D02*
X12780000Y-9200000D01*
X12780000Y-9440000D02*
X12800000Y-9460000D01*
X12800000Y-9440000D02*
X12780000Y-9460000D01*
X12780000Y-9500000D02*
X12800000Y-9520000D01*
X12800000Y-9500000D02*
X12780000Y-9520000D01*
X12800000Y-8220000D02*
X12820000Y-8240000D01*
X12820000Y-8220000D02*
X12800000Y-8240000D01*
X12800000Y-8280000D02*
X12820000Y-8300000D01*
X12820000Y-8280000D02*
X12800000Y-8300000D01*
X12800000Y-9270000D02*
X12820000Y-9290000D01*
X12820000Y-9270000D02*
X12800000Y-9290000D01*
X12820000Y-8110000D02*
X12840000Y-8130000D01*
X12840000Y-8110000D02*
X12820000Y-8130000D01*
X12840000Y-7820000D02*
X12860000Y-7840000D01*
X12860000Y-7820000D02*
X12840000Y-7840000D01*
X12840000Y-7880000D02*
X12860000Y-7900000D01*
X12860000Y-7880000D02*
X12840000Y-7900000D01*
X12840000Y-7940000D02*
X12860000Y-7960000D01*
X12860000Y-7940000D02*
X12840000Y-7960000D01*
X12840000Y-8000000D02*
X12860000Y-8020000D01*
X12860000Y-8000000D02*
X12840000Y-8020000D01*
X12840000Y-9120000D02*
X12860000Y-9140000D01*
X12860000Y-9120000D02*
X12840000Y-9140000D01*
X12840000Y-9180000D02*
X12860000Y-9200000D01*
X12860000Y-9180000D02*
X12840000Y-9200000D01*
X12840000Y-9440000D02*
X12860000Y-9460000D01*
X12860000Y-9440000D02*
X12840000Y-9460000D01*
X12840000Y-9500000D02*
X12860000Y-9520000D01*
X12860000Y-9500000D02*
X12840000Y-9520000D01*
X12860000Y-9270000D02*
X12880000Y-9290000D01*
X12880000Y-9270000D02*
X12860000Y-9290000D01*
X12900000Y-7820000D02*
X12920000Y-7840000D01*
X12920000Y-7820000D02*
X12900000Y-7840000D01*
X12900000Y-7880000D02*
X12920000Y-7900000D01*
X12920000Y-7880000D02*
X12900000Y-7900000D01*
X12900000Y-7940000D02*
X12920000Y-7960000D01*
X12920000Y-7940000D02*
X12900000Y-7960000D01*
X12900000Y-8000000D02*
X12920000Y-8020000D01*
X12920000Y-8000000D02*
X12900000Y-8020000D01*
X12900000Y-9120000D02*
X12920000Y-9140000D01*
X12920000Y-9120000D02*
X12900000Y-9140000D01*
X12900000Y-9180000D02*
X12920000Y-9200000D01*
X12920000Y-9180000D02*
X12900000Y-9200000D01*
X12900000Y-9440000D02*
X12920000Y-9460000D01*
X12920000Y-9440000D02*
X12900000Y-9460000D01*
X12900000Y-9500000D02*
X12920000Y-9520000D01*
X12920000Y-9500000D02*
X12900000Y-9520000D01*
X12900000Y-9560000D02*
X12920000Y-9580000D01*
X12920000Y-9560000D02*
X12900000Y-9580000D01*
X12920000Y-8210000D02*
X12940000Y-8230000D01*
X12940000Y-8210000D02*
X12920000Y-8230000D01*
X12920000Y-9270000D02*
X12940000Y-9290000D01*
X12940000Y-9270000D02*
X12920000Y-9290000D01*
X12960000Y-7880000D02*
X12980000Y-7900000D01*
X12980000Y-7880000D02*
X12960000Y-7900000D01*
X12960000Y-7940000D02*
X12980000Y-7960000D01*
X12980000Y-7940000D02*
X12960000Y-7960000D01*
X12960000Y-8000000D02*
X12980000Y-8020000D01*
X12980000Y-8000000D02*
X12960000Y-8020000D01*
X12960000Y-8060000D02*
X12980000Y-8080000D01*
X12980000Y-8060000D02*
X12960000Y-8080000D01*
X12960000Y-8160000D02*
X12980000Y-8180000D01*
X12980000Y-8160000D02*
X12960000Y-8180000D01*
X12960000Y-9120000D02*
X12980000Y-9140000D01*
X12980000Y-9120000D02*
X12960000Y-9140000D01*
X12960000Y-9180000D02*
X12980000Y-9200000D01*
X12980000Y-9180000D02*
X12960000Y-9200000D01*
X12960000Y-9500000D02*
X12980000Y-9520000D01*
X12980000Y-9500000D02*
X12960000Y-9520000D01*
X12960000Y-9560000D02*
X12980000Y-9580000D01*
X12980000Y-9560000D02*
X12960000Y-9580000D01*
X12980000Y-9270000D02*
X13000000Y-9290000D01*
X13000000Y-9270000D02*
X12980000Y-9290000D01*
X11684000Y-7854000D02*
G75*
G02*
X11654000Y-7854000I-15000J0D01*
G01*
X11654000Y-7854000D02*
G75*
G02*
X11684000Y-7854000I15000J0D01*
G01*
X11705705Y-8105705D02*
G75*
G02*
X11675705Y-8105705I-15000J0D01*
G01*
X11675705Y-8105705D02*
G75*
G02*
X11705705Y-8105705I15000J0D01*
G01*
X12015000Y-8350000D02*
G75*
G02*
X11985000Y-8350000I-15000J0D01*
G01*
X11985000Y-8350000D02*
G75*
G02*
X12015000Y-8350000I15000J0D01*
G01*
X12015000Y-8430000D02*
G75*
G02*
X11985000Y-8430000I-15000J0D01*
G01*
X11985000Y-8430000D02*
G75*
G02*
X12015000Y-8430000I15000J0D01*
G01*
X12015000Y-8510000D02*
G75*
G02*
X11985000Y-8510000I-15000J0D01*
G01*
X11985000Y-8510000D02*
G75*
G02*
X12015000Y-8510000I15000J0D01*
G01*
X12015000Y-8580000D02*
G75*
G02*
X11985000Y-8580000I-15000J0D01*
G01*
X11985000Y-8580000D02*
G75*
G02*
X12015000Y-8580000I15000J0D01*
G01*
X12015000Y-8650000D02*
G75*
G02*
X11985000Y-8650000I-15000J0D01*
G01*
X11985000Y-8650000D02*
G75*
G02*
X12015000Y-8650000I15000J0D01*
G01*
X12015000Y-8720000D02*
G75*
G02*
X11985000Y-8720000I-15000J0D01*
G01*
X11985000Y-8720000D02*
G75*
G02*
X12015000Y-8720000I15000J0D01*
G01*
X12105000Y-8350000D02*
G75*
G02*
X12075000Y-8350000I-15000J0D01*
G01*
X12075000Y-8350000D02*
G75*
G02*
X12105000Y-8350000I15000J0D01*
G01*
X12105000Y-8430000D02*
G75*
G02*
X12075000Y-8430000I-15000J0D01*
G01*
X12075000Y-8430000D02*
G75*
G02*
X12105000Y-8430000I15000J0D01*
G01*
X12105000Y-8510000D02*
G75*
G02*
X12075000Y-8510000I-15000J0D01*
G01*
X12075000Y-8510000D02*
G75*
G02*
X12105000Y-8510000I15000J0D01*
G01*
X12105000Y-8580000D02*
G75*
G02*
X12075000Y-8580000I-15000J0D01*
G01*
X12075000Y-8580000D02*
G75*
G02*
X12105000Y-8580000I15000J0D01*
G01*
X12105000Y-8650000D02*
G75*
G02*
X12075000Y-8650000I-15000J0D01*
G01*
X12075000Y-8650000D02*
G75*
G02*
X12105000Y-8650000I15000J0D01*
G01*
X12105000Y-8720000D02*
G75*
G02*
X12075000Y-8720000I-15000J0D01*
G01*
X12075000Y-8720000D02*
G75*
G02*
X12105000Y-8720000I15000J0D01*
G01*
X12205000Y-8350000D02*
G75*
G02*
X12175000Y-8350000I-15000J0D01*
G01*
X12175000Y-8350000D02*
G75*
G02*
X12205000Y-8350000I15000J0D01*
G01*
X12205000Y-8430000D02*
G75*
G02*
X12175000Y-8430000I-15000J0D01*
G01*
X12175000Y-8430000D02*
G75*
G02*
X12205000Y-8430000I15000J0D01*
G01*
X12205000Y-8510000D02*
G75*
G02*
X12175000Y-8510000I-15000J0D01*
G01*
X12175000Y-8510000D02*
G75*
G02*
X12205000Y-8510000I15000J0D01*
G01*
X12205000Y-8580000D02*
G75*
G02*
X12175000Y-8580000I-15000J0D01*
G01*
X12175000Y-8580000D02*
G75*
G02*
X12205000Y-8580000I15000J0D01*
G01*
X12205000Y-8650000D02*
G75*
G02*
X12175000Y-8650000I-15000J0D01*
G01*
X12175000Y-8650000D02*
G75*
G02*
X12205000Y-8650000I15000J0D01*
G01*
X12205000Y-8720000D02*
G75*
G02*
X12175000Y-8720000I-15000J0D01*
G01*
X12175000Y-8720000D02*
G75*
G02*
X12205000Y-8720000I15000J0D01*
G01*
X12285000Y-8350000D02*
G75*
G02*
X12255000Y-8350000I-15000J0D01*
G01*
X12255000Y-8350000D02*
G75*
G02*
X12285000Y-8350000I15000J0D01*
G01*
X12285000Y-8430000D02*
G75*
G02*
X12255000Y-8430000I-15000J0D01*
G01*
X12255000Y-8430000D02*
G75*
G02*
X12285000Y-8430000I15000J0D01*
G01*
X12285000Y-8510000D02*
G75*
G02*
X12255000Y-8510000I-15000J0D01*
G01*
X12255000Y-8510000D02*
G75*
G02*
X12285000Y-8510000I15000J0D01*
G01*
X12285000Y-8580000D02*
G75*
G02*
X12255000Y-8580000I-15000J0D01*
G01*
X12255000Y-8580000D02*
G75*
G02*
X12285000Y-8580000I15000J0D01*
G01*
X12285000Y-8650000D02*
G75*
G02*
X12255000Y-8650000I-15000J0D01*
G01*
X12255000Y-8650000D02*
G75*
G02*
X12285000Y-8650000I15000J0D01*
G01*
X12285000Y-8720000D02*
G75*
G02*
X12255000Y-8720000I-15000J0D01*
G01*
X12255000Y-8720000D02*
G75*
G02*
X12285000Y-8720000I15000J0D01*
G01*
X12302000Y-8101000D02*
G75*
G02*
X12272000Y-8101000I-15000J0D01*
G01*
X12272000Y-8101000D02*
G75*
G02*
X12302000Y-8101000I15000J0D01*
G01*
X12363600Y-7990000D02*
G75*
G02*
X12333600Y-7990000I-15000J0D01*
G01*
X12333600Y-7990000D02*
G75*
G02*
X12363600Y-7990000I15000J0D01*
G01*
X12375000Y-8350000D02*
G75*
G02*
X12345000Y-8350000I-15000J0D01*
G01*
X12345000Y-8350000D02*
G75*
G02*
X12375000Y-8350000I15000J0D01*
G01*
X12375000Y-8430000D02*
G75*
G02*
X12345000Y-8430000I-15000J0D01*
G01*
X12345000Y-8430000D02*
G75*
G02*
X12375000Y-8430000I15000J0D01*
G01*
X12375000Y-8510000D02*
G75*
G02*
X12345000Y-8510000I-15000J0D01*
G01*
X12345000Y-8510000D02*
G75*
G02*
X12375000Y-8510000I15000J0D01*
G01*
X12375000Y-8580000D02*
G75*
G02*
X12345000Y-8580000I-15000J0D01*
G01*
X12345000Y-8580000D02*
G75*
G02*
X12375000Y-8580000I15000J0D01*
G01*
X12375000Y-8650000D02*
G75*
G02*
X12345000Y-8650000I-15000J0D01*
G01*
X12345000Y-8650000D02*
G75*
G02*
X12375000Y-8650000I15000J0D01*
G01*
X12375000Y-8720000D02*
G75*
G02*
X12345000Y-8720000I-15000J0D01*
G01*
X12345000Y-8720000D02*
G75*
G02*
X12375000Y-8720000I15000J0D01*
G01*
X12487000Y-8185000D02*
G75*
G02*
X12457000Y-8185000I-15000J0D01*
G01*
X12457000Y-8185000D02*
G75*
G02*
X12487000Y-8185000I15000J0D01*
G01*
X12610000Y-8828000D02*
G75*
G02*
X12580000Y-8828000I-15000J0D01*
G01*
X12580000Y-8828000D02*
G75*
G02*
X12610000Y-8828000I15000J0D01*
G01*
X12620000Y-8384000D02*
G75*
G02*
X12590000Y-8384000I-15000J0D01*
G01*
X12590000Y-8384000D02*
G75*
G02*
X12620000Y-8384000I15000J0D01*
G01*
X12832500Y-8602018D02*
G75*
G02*
X12802500Y-8602018I-15000J0D01*
G01*
X12802500Y-8602018D02*
G75*
G02*
X12832500Y-8602018I15000J0D01*
G01*
X12974000Y-7757000D02*
G75*
G02*
X12944000Y-7757000I-15000J0D01*
G01*
X12944000Y-7757000D02*
G75*
G02*
X12974000Y-7757000I15000J0D01*
G01*
X13005000Y-7832500D02*
G75*
G02*
X12975000Y-7832500I-15000J0D01*
G01*
X12975000Y-7832500D02*
G75*
G02*
X13005000Y-7832500I15000J0D01*
G01*
X11348000Y-7809000D02*
X11348000Y-7859000D01*
X11323000Y-7834000D02*
X11373000Y-7834000D01*
X11348000Y-7936000D02*
X11348000Y-7986000D01*
X11323000Y-7961000D02*
X11373000Y-7961000D01*
X11348000Y-8063000D02*
X11348000Y-8113000D01*
X11323000Y-8088000D02*
X11373000Y-8088000D01*
X11348000Y-8190000D02*
X11348000Y-8240000D01*
X11323000Y-8215000D02*
X11373000Y-8215000D01*
X11348000Y-8317000D02*
X11348000Y-8367000D01*
X11323000Y-8342000D02*
X11373000Y-8342000D01*
X11348000Y-8444000D02*
X11348000Y-8494000D01*
X11323000Y-8469000D02*
X11373000Y-8469000D01*
X11348000Y-8571000D02*
X11348000Y-8621000D01*
X11323000Y-8596000D02*
X11373000Y-8596000D01*
X11348000Y-8698000D02*
X11348000Y-8748000D01*
X11323000Y-8723000D02*
X11373000Y-8723000D01*
X11348000Y-8825000D02*
X11348000Y-8875000D01*
X11323000Y-8850000D02*
X11373000Y-8850000D01*
X11348000Y-8952000D02*
X11348000Y-9002000D01*
X11323000Y-8977000D02*
X11373000Y-8977000D01*
X11348000Y-9079000D02*
X11348000Y-9129000D01*
X11323000Y-9104000D02*
X11373000Y-9104000D01*
X11348000Y-9206000D02*
X11348000Y-9256000D01*
X11323000Y-9231000D02*
X11373000Y-9231000D01*
X11348000Y-9333000D02*
X11348000Y-9383000D01*
X11323000Y-9358000D02*
X11373000Y-9358000D01*
X11348000Y-9460000D02*
X11348000Y-9510000D01*
X11323000Y-9485000D02*
X11373000Y-9485000D01*
X11663000Y-9607000D02*
X11663000Y-9657000D01*
X11638000Y-9632000D02*
X11688000Y-9632000D01*
X11790000Y-9607000D02*
X11790000Y-9657000D01*
X11765000Y-9632000D02*
X11815000Y-9632000D01*
X11917000Y-9607000D02*
X11917000Y-9657000D01*
X11892000Y-9632000D02*
X11942000Y-9632000D01*
X12044000Y-9607000D02*
X12044000Y-9657000D01*
X12019000Y-9632000D02*
X12069000Y-9632000D01*
X12171000Y-9607000D02*
X12171000Y-9657000D01*
X12146000Y-9632000D02*
X12196000Y-9632000D01*
X12298000Y-9607000D02*
X12298000Y-9657000D01*
X12273000Y-9632000D02*
X12323000Y-9632000D01*
X12425000Y-9607000D02*
X12425000Y-9657000D01*
X12400000Y-9632000D02*
X12450000Y-9632000D01*
X12552000Y-9607000D02*
X12552000Y-9657000D01*
X12527000Y-9632000D02*
X12577000Y-9632000D01*
X12679000Y-9607000D02*
X12679000Y-9657000D01*
X12654000Y-9632000D02*
X12704000Y-9632000D01*
X12806000Y-9607000D02*
X12806000Y-9657000D01*
X12781000Y-9632000D02*
X12831000Y-9632000D01*
X13152000Y-7810000D02*
X13152000Y-7860000D01*
X13127000Y-7835000D02*
X13177000Y-7835000D01*
X13152000Y-7937000D02*
X13152000Y-7987000D01*
X13127000Y-7962000D02*
X13177000Y-7962000D01*
X13152000Y-8064000D02*
X13152000Y-8114000D01*
X13127000Y-8089000D02*
X13177000Y-8089000D01*
X13152000Y-8191000D02*
X13152000Y-8241000D01*
X13127000Y-8216000D02*
X13177000Y-8216000D01*
X13152000Y-8318000D02*
X13152000Y-8368000D01*
X13127000Y-8343000D02*
X13177000Y-8343000D01*
X13152000Y-8445000D02*
X13152000Y-8495000D01*
X13127000Y-8470000D02*
X13177000Y-8470000D01*
X13152000Y-8572000D02*
X13152000Y-8622000D01*
X13127000Y-8597000D02*
X13177000Y-8597000D01*
X13152000Y-8699000D02*
X13152000Y-8749000D01*
X13127000Y-8724000D02*
X13177000Y-8724000D01*
X13152000Y-8826000D02*
X13152000Y-8876000D01*
X13127000Y-8851000D02*
X13177000Y-8851000D01*
X13152000Y-8953000D02*
X13152000Y-9003000D01*
X13127000Y-8978000D02*
X13177000Y-8978000D01*
X13152000Y-9080000D02*
X13152000Y-9130000D01*
X13127000Y-9105000D02*
X13177000Y-9105000D01*
X13152000Y-9207000D02*
X13152000Y-9257000D01*
X13127000Y-9232000D02*
X13177000Y-9232000D01*
X13152000Y-9334000D02*
X13152000Y-9384000D01*
X13127000Y-9359000D02*
X13177000Y-9359000D01*
X13152000Y-9461000D02*
X13152000Y-9511000D01*
X13127000Y-9486000D02*
X13177000Y-9486000D01*
D11*
X11608277Y-9943984D02*
X11608277Y-9743984D01*
X11608277Y-9743984D02*
X11655896Y-9743984D01*
X11655896Y-9743984D02*
X11684467Y-9753508D01*
X11684467Y-9753508D02*
X11703515Y-9772555D01*
X11703515Y-9772555D02*
X11713039Y-9791603D01*
X11713039Y-9791603D02*
X11722562Y-9829698D01*
X11722562Y-9829698D02*
X11722562Y-9858270D01*
X11722562Y-9858270D02*
X11713039Y-9896365D01*
X11713039Y-9896365D02*
X11703515Y-9915412D01*
X11703515Y-9915412D02*
X11684467Y-9934460D01*
X11684467Y-9934460D02*
X11655896Y-9943984D01*
X11655896Y-9943984D02*
X11608277Y-9943984D01*
X11808277Y-9943984D02*
X11808277Y-9810650D01*
X11808277Y-9848746D02*
X11817801Y-9829698D01*
X11817801Y-9829698D02*
X11827324Y-9820174D01*
X11827324Y-9820174D02*
X11846372Y-9810650D01*
X11846372Y-9810650D02*
X11865420Y-9810650D01*
X11932086Y-9943984D02*
X11932086Y-9810650D01*
X11932086Y-9743984D02*
X11922562Y-9753508D01*
X11922562Y-9753508D02*
X11932086Y-9763031D01*
X11932086Y-9763031D02*
X11941610Y-9753508D01*
X11941610Y-9753508D02*
X11932086Y-9743984D01*
X11932086Y-9743984D02*
X11932086Y-9763031D01*
X12055896Y-9943984D02*
X12036848Y-9934460D01*
X12036848Y-9934460D02*
X12027324Y-9915412D01*
X12027324Y-9915412D02*
X12027324Y-9743984D01*
X12160658Y-9943984D02*
X12141610Y-9934460D01*
X12141610Y-9934460D02*
X12132086Y-9915412D01*
X12132086Y-9915412D02*
X12132086Y-9743984D01*
X12389229Y-9943984D02*
X12389229Y-9743984D01*
X12389229Y-9743984D02*
X12455896Y-9886841D01*
X12455896Y-9886841D02*
X12522562Y-9743984D01*
X12522562Y-9743984D02*
X12522562Y-9943984D01*
X12703515Y-9943984D02*
X12703515Y-9839222D01*
X12703515Y-9839222D02*
X12693991Y-9820174D01*
X12693991Y-9820174D02*
X12674943Y-9810650D01*
X12674943Y-9810650D02*
X12636848Y-9810650D01*
X12636848Y-9810650D02*
X12617801Y-9820174D01*
X12703515Y-9934460D02*
X12684467Y-9943984D01*
X12684467Y-9943984D02*
X12636848Y-9943984D01*
X12636848Y-9943984D02*
X12617801Y-9934460D01*
X12617801Y-9934460D02*
X12608277Y-9915412D01*
X12608277Y-9915412D02*
X12608277Y-9896365D01*
X12608277Y-9896365D02*
X12617801Y-9877317D01*
X12617801Y-9877317D02*
X12636848Y-9867793D01*
X12636848Y-9867793D02*
X12684467Y-9867793D01*
X12684467Y-9867793D02*
X12703515Y-9858270D01*
X12798753Y-9810650D02*
X12798753Y-10010650D01*
X12798753Y-9820174D02*
X12817801Y-9810650D01*
X12817801Y-9810650D02*
X12855896Y-9810650D01*
X12855896Y-9810650D02*
X12874943Y-9820174D01*
X12874943Y-9820174D02*
X12884467Y-9829698D01*
X12884467Y-9829698D02*
X12893991Y-9848746D01*
X12893991Y-9848746D02*
X12893991Y-9905889D01*
X12893991Y-9905889D02*
X12884467Y-9924936D01*
X12884467Y-9924936D02*
X12874943Y-9934460D01*
X12874943Y-9934460D02*
X12855896Y-9943984D01*
X12855896Y-9943984D02*
X12817801Y-9943984D01*
X12817801Y-9943984D02*
X12798753Y-9934460D01*
X12979705Y-9924936D02*
X12989229Y-9934460D01*
X12989229Y-9934460D02*
X12979705Y-9943984D01*
X12979705Y-9943984D02*
X12970182Y-9934460D01*
X12970182Y-9934460D02*
X12979705Y-9924936D01*
X12979705Y-9924936D02*
X12979705Y-9943984D01*
X12979705Y-9820174D02*
X12989229Y-9829698D01*
X12989229Y-9829698D02*
X12979705Y-9839222D01*
X12979705Y-9839222D02*
X12970182Y-9829698D01*
X12970182Y-9829698D02*
X12979705Y-9820174D01*
X12979705Y-9820174D02*
X12979705Y-9839222D01*
D12*
X11327500Y-10262500D02*
X11347500Y-10282500D01*
X11347500Y-10262500D02*
X11327500Y-10282500D01*
D11*
X11646372Y-10163984D02*
X11665420Y-10163984D01*
X11665420Y-10163984D02*
X11684467Y-10173508D01*
X11684467Y-10173508D02*
X11693991Y-10183031D01*
X11693991Y-10183031D02*
X11703515Y-10202079D01*
X11703515Y-10202079D02*
X11713039Y-10240174D01*
X11713039Y-10240174D02*
X11713039Y-10287793D01*
X11713039Y-10287793D02*
X11703515Y-10325889D01*
X11703515Y-10325889D02*
X11693991Y-10344936D01*
X11693991Y-10344936D02*
X11684467Y-10354460D01*
X11684467Y-10354460D02*
X11665420Y-10363984D01*
X11665420Y-10363984D02*
X11646372Y-10363984D01*
X11646372Y-10363984D02*
X11627324Y-10354460D01*
X11627324Y-10354460D02*
X11617801Y-10344936D01*
X11617801Y-10344936D02*
X11608277Y-10325889D01*
X11608277Y-10325889D02*
X11598753Y-10287793D01*
X11598753Y-10287793D02*
X11598753Y-10240174D01*
X11598753Y-10240174D02*
X11608277Y-10202079D01*
X11608277Y-10202079D02*
X11617801Y-10183031D01*
X11617801Y-10183031D02*
X11627324Y-10173508D01*
X11627324Y-10173508D02*
X11646372Y-10163984D01*
X11798753Y-10344936D02*
X11808277Y-10354460D01*
X11808277Y-10354460D02*
X11798753Y-10363984D01*
X11798753Y-10363984D02*
X11789229Y-10354460D01*
X11789229Y-10354460D02*
X11798753Y-10344936D01*
X11798753Y-10344936D02*
X11798753Y-10363984D01*
X11884467Y-10183031D02*
X11893991Y-10173508D01*
X11893991Y-10173508D02*
X11913039Y-10163984D01*
X11913039Y-10163984D02*
X11960658Y-10163984D01*
X11960658Y-10163984D02*
X11979705Y-10173508D01*
X11979705Y-10173508D02*
X11989229Y-10183031D01*
X11989229Y-10183031D02*
X11998753Y-10202079D01*
X11998753Y-10202079D02*
X11998753Y-10221127D01*
X11998753Y-10221127D02*
X11989229Y-10249698D01*
X11989229Y-10249698D02*
X11874943Y-10363984D01*
X11874943Y-10363984D02*
X11998753Y-10363984D01*
X12122562Y-10163984D02*
X12141610Y-10163984D01*
X12141610Y-10163984D02*
X12160658Y-10173508D01*
X12160658Y-10173508D02*
X12170182Y-10183031D01*
X12170182Y-10183031D02*
X12179705Y-10202079D01*
X12179705Y-10202079D02*
X12189229Y-10240174D01*
X12189229Y-10240174D02*
X12189229Y-10287793D01*
X12189229Y-10287793D02*
X12179705Y-10325889D01*
X12179705Y-10325889D02*
X12170182Y-10344936D01*
X12170182Y-10344936D02*
X12160658Y-10354460D01*
X12160658Y-10354460D02*
X12141610Y-10363984D01*
X12141610Y-10363984D02*
X12122562Y-10363984D01*
X12122562Y-10363984D02*
X12103515Y-10354460D01*
X12103515Y-10354460D02*
X12093991Y-10344936D01*
X12093991Y-10344936D02*
X12084467Y-10325889D01*
X12084467Y-10325889D02*
X12074943Y-10287793D01*
X12074943Y-10287793D02*
X12074943Y-10240174D01*
X12074943Y-10240174D02*
X12084467Y-10202079D01*
X12084467Y-10202079D02*
X12093991Y-10183031D01*
X12093991Y-10183031D02*
X12103515Y-10173508D01*
X12103515Y-10173508D02*
X12122562Y-10163984D01*
X12313039Y-10163984D02*
X12332086Y-10163984D01*
X12332086Y-10163984D02*
X12351134Y-10173508D01*
X12351134Y-10173508D02*
X12360658Y-10183031D01*
X12360658Y-10183031D02*
X12370182Y-10202079D01*
X12370182Y-10202079D02*
X12379705Y-10240174D01*
X12379705Y-10240174D02*
X12379705Y-10287793D01*
X12379705Y-10287793D02*
X12370182Y-10325889D01*
X12370182Y-10325889D02*
X12360658Y-10344936D01*
X12360658Y-10344936D02*
X12351134Y-10354460D01*
X12351134Y-10354460D02*
X12332086Y-10363984D01*
X12332086Y-10363984D02*
X12313039Y-10363984D01*
X12313039Y-10363984D02*
X12293991Y-10354460D01*
X12293991Y-10354460D02*
X12284467Y-10344936D01*
X12284467Y-10344936D02*
X12274943Y-10325889D01*
X12274943Y-10325889D02*
X12265420Y-10287793D01*
X12265420Y-10287793D02*
X12265420Y-10240174D01*
X12265420Y-10240174D02*
X12274943Y-10202079D01*
X12274943Y-10202079D02*
X12284467Y-10183031D01*
X12284467Y-10183031D02*
X12293991Y-10173508D01*
X12293991Y-10173508D02*
X12313039Y-10163984D01*
X12465420Y-10363984D02*
X12465420Y-10230650D01*
X12465420Y-10249698D02*
X12474943Y-10240174D01*
X12474943Y-10240174D02*
X12493991Y-10230650D01*
X12493991Y-10230650D02*
X12522563Y-10230650D01*
X12522563Y-10230650D02*
X12541610Y-10240174D01*
X12541610Y-10240174D02*
X12551134Y-10259222D01*
X12551134Y-10259222D02*
X12551134Y-10363984D01*
X12551134Y-10259222D02*
X12560658Y-10240174D01*
X12560658Y-10240174D02*
X12579705Y-10230650D01*
X12579705Y-10230650D02*
X12608277Y-10230650D01*
X12608277Y-10230650D02*
X12627324Y-10240174D01*
X12627324Y-10240174D02*
X12636848Y-10259222D01*
X12636848Y-10259222D02*
X12636848Y-10363984D01*
X12732086Y-10363984D02*
X12732086Y-10230650D01*
X12732086Y-10249698D02*
X12741610Y-10240174D01*
X12741610Y-10240174D02*
X12760658Y-10230650D01*
X12760658Y-10230650D02*
X12789229Y-10230650D01*
X12789229Y-10230650D02*
X12808277Y-10240174D01*
X12808277Y-10240174D02*
X12817801Y-10259222D01*
X12817801Y-10259222D02*
X12817801Y-10363984D01*
X12817801Y-10259222D02*
X12827324Y-10240174D01*
X12827324Y-10240174D02*
X12846372Y-10230650D01*
X12846372Y-10230650D02*
X12874943Y-10230650D01*
X12874943Y-10230650D02*
X12893991Y-10240174D01*
X12893991Y-10240174D02*
X12903515Y-10259222D01*
X12903515Y-10259222D02*
X12903515Y-10363984D01*
X13293991Y-10154460D02*
X13122563Y-10411603D01*
X13551134Y-10163984D02*
X13570182Y-10163984D01*
X13570182Y-10163984D02*
X13589229Y-10173508D01*
X13589229Y-10173508D02*
X13598753Y-10183031D01*
X13598753Y-10183031D02*
X13608277Y-10202079D01*
X13608277Y-10202079D02*
X13617801Y-10240174D01*
X13617801Y-10240174D02*
X13617801Y-10287793D01*
X13617801Y-10287793D02*
X13608277Y-10325889D01*
X13608277Y-10325889D02*
X13598753Y-10344936D01*
X13598753Y-10344936D02*
X13589229Y-10354460D01*
X13589229Y-10354460D02*
X13570182Y-10363984D01*
X13570182Y-10363984D02*
X13551134Y-10363984D01*
X13551134Y-10363984D02*
X13532086Y-10354460D01*
X13532086Y-10354460D02*
X13522563Y-10344936D01*
X13522563Y-10344936D02*
X13513039Y-10325889D01*
X13513039Y-10325889D02*
X13503515Y-10287793D01*
X13503515Y-10287793D02*
X13503515Y-10240174D01*
X13503515Y-10240174D02*
X13513039Y-10202079D01*
X13513039Y-10202079D02*
X13522563Y-10183031D01*
X13522563Y-10183031D02*
X13532086Y-10173508D01*
X13532086Y-10173508D02*
X13551134Y-10163984D01*
X13703515Y-10344936D02*
X13713039Y-10354460D01*
X13713039Y-10354460D02*
X13703515Y-10363984D01*
X13703515Y-10363984D02*
X13693991Y-10354460D01*
X13693991Y-10354460D02*
X13703515Y-10344936D01*
X13703515Y-10344936D02*
X13703515Y-10363984D01*
X13836848Y-10163984D02*
X13855896Y-10163984D01*
X13855896Y-10163984D02*
X13874944Y-10173508D01*
X13874944Y-10173508D02*
X13884467Y-10183031D01*
X13884467Y-10183031D02*
X13893991Y-10202079D01*
X13893991Y-10202079D02*
X13903515Y-10240174D01*
X13903515Y-10240174D02*
X13903515Y-10287793D01*
X13903515Y-10287793D02*
X13893991Y-10325889D01*
X13893991Y-10325889D02*
X13884467Y-10344936D01*
X13884467Y-10344936D02*
X13874944Y-10354460D01*
X13874944Y-10354460D02*
X13855896Y-10363984D01*
X13855896Y-10363984D02*
X13836848Y-10363984D01*
X13836848Y-10363984D02*
X13817801Y-10354460D01*
X13817801Y-10354460D02*
X13808277Y-10344936D01*
X13808277Y-10344936D02*
X13798753Y-10325889D01*
X13798753Y-10325889D02*
X13789229Y-10287793D01*
X13789229Y-10287793D02*
X13789229Y-10240174D01*
X13789229Y-10240174D02*
X13798753Y-10202079D01*
X13798753Y-10202079D02*
X13808277Y-10183031D01*
X13808277Y-10183031D02*
X13817801Y-10173508D01*
X13817801Y-10173508D02*
X13836848Y-10163984D01*
X14027325Y-10163984D02*
X14046372Y-10163984D01*
X14046372Y-10163984D02*
X14065420Y-10173508D01*
X14065420Y-10173508D02*
X14074944Y-10183031D01*
X14074944Y-10183031D02*
X14084467Y-10202079D01*
X14084467Y-10202079D02*
X14093991Y-10240174D01*
X14093991Y-10240174D02*
X14093991Y-10287793D01*
X14093991Y-10287793D02*
X14084467Y-10325889D01*
X14084467Y-10325889D02*
X14074944Y-10344936D01*
X14074944Y-10344936D02*
X14065420Y-10354460D01*
X14065420Y-10354460D02*
X14046372Y-10363984D01*
X14046372Y-10363984D02*
X14027325Y-10363984D01*
X14027325Y-10363984D02*
X14008277Y-10354460D01*
X14008277Y-10354460D02*
X13998753Y-10344936D01*
X13998753Y-10344936D02*
X13989229Y-10325889D01*
X13989229Y-10325889D02*
X13979706Y-10287793D01*
X13979706Y-10287793D02*
X13979706Y-10240174D01*
X13979706Y-10240174D02*
X13989229Y-10202079D01*
X13989229Y-10202079D02*
X13998753Y-10183031D01*
X13998753Y-10183031D02*
X14008277Y-10173508D01*
X14008277Y-10173508D02*
X14027325Y-10163984D01*
X14160658Y-10163984D02*
X14293991Y-10163984D01*
X14293991Y-10163984D02*
X14208277Y-10363984D01*
X14379706Y-10363984D02*
X14417801Y-10363984D01*
X14417801Y-10363984D02*
X14436848Y-10354460D01*
X14436848Y-10354460D02*
X14446372Y-10344936D01*
X14446372Y-10344936D02*
X14465420Y-10316365D01*
X14465420Y-10316365D02*
X14474944Y-10278270D01*
X14474944Y-10278270D02*
X14474944Y-10202079D01*
X14474944Y-10202079D02*
X14465420Y-10183031D01*
X14465420Y-10183031D02*
X14455896Y-10173508D01*
X14455896Y-10173508D02*
X14436848Y-10163984D01*
X14436848Y-10163984D02*
X14398753Y-10163984D01*
X14398753Y-10163984D02*
X14379706Y-10173508D01*
X14379706Y-10173508D02*
X14370182Y-10183031D01*
X14370182Y-10183031D02*
X14360658Y-10202079D01*
X14360658Y-10202079D02*
X14360658Y-10249698D01*
X14360658Y-10249698D02*
X14370182Y-10268746D01*
X14370182Y-10268746D02*
X14379706Y-10278270D01*
X14379706Y-10278270D02*
X14398753Y-10287793D01*
X14398753Y-10287793D02*
X14436848Y-10287793D01*
X14436848Y-10287793D02*
X14455896Y-10278270D01*
X14455896Y-10278270D02*
X14465420Y-10268746D01*
X14465420Y-10268746D02*
X14474944Y-10249698D01*
X14551134Y-10163984D02*
X14551134Y-10202079D01*
X14627325Y-10163984D02*
X14627325Y-10202079D01*
X14922563Y-10440174D02*
X14913039Y-10430650D01*
X14913039Y-10430650D02*
X14893991Y-10402079D01*
X14893991Y-10402079D02*
X14884468Y-10383031D01*
X14884468Y-10383031D02*
X14874944Y-10354460D01*
X14874944Y-10354460D02*
X14865420Y-10306841D01*
X14865420Y-10306841D02*
X14865420Y-10268746D01*
X14865420Y-10268746D02*
X14874944Y-10221127D01*
X14874944Y-10221127D02*
X14884468Y-10192555D01*
X14884468Y-10192555D02*
X14893991Y-10173508D01*
X14893991Y-10173508D02*
X14913039Y-10144936D01*
X14913039Y-10144936D02*
X14922563Y-10135412D01*
X15103515Y-10363984D02*
X14989229Y-10363984D01*
X15046372Y-10363984D02*
X15046372Y-10163984D01*
X15046372Y-10163984D02*
X15027325Y-10192555D01*
X15027325Y-10192555D02*
X15008277Y-10211603D01*
X15008277Y-10211603D02*
X14989229Y-10221127D01*
X15227325Y-10163984D02*
X15246372Y-10163984D01*
X15246372Y-10163984D02*
X15265420Y-10173508D01*
X15265420Y-10173508D02*
X15274944Y-10183031D01*
X15274944Y-10183031D02*
X15284468Y-10202079D01*
X15284468Y-10202079D02*
X15293991Y-10240174D01*
X15293991Y-10240174D02*
X15293991Y-10287793D01*
X15293991Y-10287793D02*
X15284468Y-10325889D01*
X15284468Y-10325889D02*
X15274944Y-10344936D01*
X15274944Y-10344936D02*
X15265420Y-10354460D01*
X15265420Y-10354460D02*
X15246372Y-10363984D01*
X15246372Y-10363984D02*
X15227325Y-10363984D01*
X15227325Y-10363984D02*
X15208277Y-10354460D01*
X15208277Y-10354460D02*
X15198753Y-10344936D01*
X15198753Y-10344936D02*
X15189229Y-10325889D01*
X15189229Y-10325889D02*
X15179706Y-10287793D01*
X15179706Y-10287793D02*
X15179706Y-10240174D01*
X15179706Y-10240174D02*
X15189229Y-10202079D01*
X15189229Y-10202079D02*
X15198753Y-10183031D01*
X15198753Y-10183031D02*
X15208277Y-10173508D01*
X15208277Y-10173508D02*
X15227325Y-10163984D01*
X15465420Y-10163984D02*
X15427325Y-10163984D01*
X15427325Y-10163984D02*
X15408277Y-10173508D01*
X15408277Y-10173508D02*
X15398753Y-10183031D01*
X15398753Y-10183031D02*
X15379706Y-10211603D01*
X15379706Y-10211603D02*
X15370182Y-10249698D01*
X15370182Y-10249698D02*
X15370182Y-10325889D01*
X15370182Y-10325889D02*
X15379706Y-10344936D01*
X15379706Y-10344936D02*
X15389229Y-10354460D01*
X15389229Y-10354460D02*
X15408277Y-10363984D01*
X15408277Y-10363984D02*
X15446372Y-10363984D01*
X15446372Y-10363984D02*
X15465420Y-10354460D01*
X15465420Y-10354460D02*
X15474944Y-10344936D01*
X15474944Y-10344936D02*
X15484468Y-10325889D01*
X15484468Y-10325889D02*
X15484468Y-10278270D01*
X15484468Y-10278270D02*
X15474944Y-10259222D01*
X15474944Y-10259222D02*
X15465420Y-10249698D01*
X15465420Y-10249698D02*
X15446372Y-10240174D01*
X15446372Y-10240174D02*
X15408277Y-10240174D01*
X15408277Y-10240174D02*
X15389229Y-10249698D01*
X15389229Y-10249698D02*
X15379706Y-10259222D01*
X15379706Y-10259222D02*
X15370182Y-10278270D01*
X15722563Y-10363984D02*
X15722563Y-10163984D01*
X15808277Y-10363984D02*
X15808277Y-10259222D01*
X15808277Y-10259222D02*
X15798753Y-10240174D01*
X15798753Y-10240174D02*
X15779706Y-10230650D01*
X15779706Y-10230650D02*
X15751134Y-10230650D01*
X15751134Y-10230650D02*
X15732087Y-10240174D01*
X15732087Y-10240174D02*
X15722563Y-10249698D01*
X15932087Y-10363984D02*
X15913039Y-10354460D01*
X15913039Y-10354460D02*
X15903515Y-10344936D01*
X15903515Y-10344936D02*
X15893991Y-10325889D01*
X15893991Y-10325889D02*
X15893991Y-10268746D01*
X15893991Y-10268746D02*
X15903515Y-10249698D01*
X15903515Y-10249698D02*
X15913039Y-10240174D01*
X15913039Y-10240174D02*
X15932087Y-10230650D01*
X15932087Y-10230650D02*
X15960658Y-10230650D01*
X15960658Y-10230650D02*
X15979706Y-10240174D01*
X15979706Y-10240174D02*
X15989230Y-10249698D01*
X15989230Y-10249698D02*
X15998753Y-10268746D01*
X15998753Y-10268746D02*
X15998753Y-10325889D01*
X15998753Y-10325889D02*
X15989230Y-10344936D01*
X15989230Y-10344936D02*
X15979706Y-10354460D01*
X15979706Y-10354460D02*
X15960658Y-10363984D01*
X15960658Y-10363984D02*
X15932087Y-10363984D01*
X16113039Y-10363984D02*
X16093991Y-10354460D01*
X16093991Y-10354460D02*
X16084468Y-10335412D01*
X16084468Y-10335412D02*
X16084468Y-10163984D01*
X16265420Y-10354460D02*
X16246372Y-10363984D01*
X16246372Y-10363984D02*
X16208277Y-10363984D01*
X16208277Y-10363984D02*
X16189230Y-10354460D01*
X16189230Y-10354460D02*
X16179706Y-10335412D01*
X16179706Y-10335412D02*
X16179706Y-10259222D01*
X16179706Y-10259222D02*
X16189230Y-10240174D01*
X16189230Y-10240174D02*
X16208277Y-10230650D01*
X16208277Y-10230650D02*
X16246372Y-10230650D01*
X16246372Y-10230650D02*
X16265420Y-10240174D01*
X16265420Y-10240174D02*
X16274944Y-10259222D01*
X16274944Y-10259222D02*
X16274944Y-10278270D01*
X16274944Y-10278270D02*
X16179706Y-10297317D01*
X16351134Y-10354460D02*
X16370182Y-10363984D01*
X16370182Y-10363984D02*
X16408277Y-10363984D01*
X16408277Y-10363984D02*
X16427325Y-10354460D01*
X16427325Y-10354460D02*
X16436849Y-10335412D01*
X16436849Y-10335412D02*
X16436849Y-10325889D01*
X16436849Y-10325889D02*
X16427325Y-10306841D01*
X16427325Y-10306841D02*
X16408277Y-10297317D01*
X16408277Y-10297317D02*
X16379706Y-10297317D01*
X16379706Y-10297317D02*
X16360658Y-10287793D01*
X16360658Y-10287793D02*
X16351134Y-10268746D01*
X16351134Y-10268746D02*
X16351134Y-10259222D01*
X16351134Y-10259222D02*
X16360658Y-10240174D01*
X16360658Y-10240174D02*
X16379706Y-10230650D01*
X16379706Y-10230650D02*
X16408277Y-10230650D01*
X16408277Y-10230650D02*
X16427325Y-10240174D01*
X16503515Y-10440174D02*
X16513039Y-10430650D01*
X16513039Y-10430650D02*
X16532087Y-10402079D01*
X16532087Y-10402079D02*
X16541611Y-10383031D01*
X16541611Y-10383031D02*
X16551134Y-10354460D01*
X16551134Y-10354460D02*
X16560658Y-10306841D01*
X16560658Y-10306841D02*
X16560658Y-10268746D01*
X16560658Y-10268746D02*
X16551134Y-10221127D01*
X16551134Y-10221127D02*
X16541611Y-10192555D01*
X16541611Y-10192555D02*
X16532087Y-10173508D01*
X16532087Y-10173508D02*
X16513039Y-10144936D01*
X16513039Y-10144936D02*
X16503515Y-10135412D01*
D12*
X11347500Y-10536500D02*
G75*
G02*
X11317500Y-10536500I-15000J0D01*
G01*
X11317500Y-10536500D02*
G75*
G02*
X11347500Y-10536500I15000J0D01*
G01*
D11*
X11646372Y-10427984D02*
X11665420Y-10427984D01*
X11665420Y-10427984D02*
X11684467Y-10437508D01*
X11684467Y-10437508D02*
X11693991Y-10447031D01*
X11693991Y-10447031D02*
X11703515Y-10466079D01*
X11703515Y-10466079D02*
X11713039Y-10504174D01*
X11713039Y-10504174D02*
X11713039Y-10551793D01*
X11713039Y-10551793D02*
X11703515Y-10589889D01*
X11703515Y-10589889D02*
X11693991Y-10608936D01*
X11693991Y-10608936D02*
X11684467Y-10618460D01*
X11684467Y-10618460D02*
X11665420Y-10627984D01*
X11665420Y-10627984D02*
X11646372Y-10627984D01*
X11646372Y-10627984D02*
X11627324Y-10618460D01*
X11627324Y-10618460D02*
X11617801Y-10608936D01*
X11617801Y-10608936D02*
X11608277Y-10589889D01*
X11608277Y-10589889D02*
X11598753Y-10551793D01*
X11598753Y-10551793D02*
X11598753Y-10504174D01*
X11598753Y-10504174D02*
X11608277Y-10466079D01*
X11608277Y-10466079D02*
X11617801Y-10447031D01*
X11617801Y-10447031D02*
X11627324Y-10437508D01*
X11627324Y-10437508D02*
X11646372Y-10427984D01*
X11798753Y-10608936D02*
X11808277Y-10618460D01*
X11808277Y-10618460D02*
X11798753Y-10627984D01*
X11798753Y-10627984D02*
X11789229Y-10618460D01*
X11789229Y-10618460D02*
X11798753Y-10608936D01*
X11798753Y-10608936D02*
X11798753Y-10627984D01*
X11874943Y-10427984D02*
X11998753Y-10427984D01*
X11998753Y-10427984D02*
X11932086Y-10504174D01*
X11932086Y-10504174D02*
X11960658Y-10504174D01*
X11960658Y-10504174D02*
X11979705Y-10513698D01*
X11979705Y-10513698D02*
X11989229Y-10523222D01*
X11989229Y-10523222D02*
X11998753Y-10542270D01*
X11998753Y-10542270D02*
X11998753Y-10589889D01*
X11998753Y-10589889D02*
X11989229Y-10608936D01*
X11989229Y-10608936D02*
X11979705Y-10618460D01*
X11979705Y-10618460D02*
X11960658Y-10627984D01*
X11960658Y-10627984D02*
X11903515Y-10627984D01*
X11903515Y-10627984D02*
X11884467Y-10618460D01*
X11884467Y-10618460D02*
X11874943Y-10608936D01*
X12122562Y-10427984D02*
X12141610Y-10427984D01*
X12141610Y-10427984D02*
X12160658Y-10437508D01*
X12160658Y-10437508D02*
X12170182Y-10447031D01*
X12170182Y-10447031D02*
X12179705Y-10466079D01*
X12179705Y-10466079D02*
X12189229Y-10504174D01*
X12189229Y-10504174D02*
X12189229Y-10551793D01*
X12189229Y-10551793D02*
X12179705Y-10589889D01*
X12179705Y-10589889D02*
X12170182Y-10608936D01*
X12170182Y-10608936D02*
X12160658Y-10618460D01*
X12160658Y-10618460D02*
X12141610Y-10627984D01*
X12141610Y-10627984D02*
X12122562Y-10627984D01*
X12122562Y-10627984D02*
X12103515Y-10618460D01*
X12103515Y-10618460D02*
X12093991Y-10608936D01*
X12093991Y-10608936D02*
X12084467Y-10589889D01*
X12084467Y-10589889D02*
X12074943Y-10551793D01*
X12074943Y-10551793D02*
X12074943Y-10504174D01*
X12074943Y-10504174D02*
X12084467Y-10466079D01*
X12084467Y-10466079D02*
X12093991Y-10447031D01*
X12093991Y-10447031D02*
X12103515Y-10437508D01*
X12103515Y-10437508D02*
X12122562Y-10427984D01*
X12313039Y-10427984D02*
X12332086Y-10427984D01*
X12332086Y-10427984D02*
X12351134Y-10437508D01*
X12351134Y-10437508D02*
X12360658Y-10447031D01*
X12360658Y-10447031D02*
X12370182Y-10466079D01*
X12370182Y-10466079D02*
X12379705Y-10504174D01*
X12379705Y-10504174D02*
X12379705Y-10551793D01*
X12379705Y-10551793D02*
X12370182Y-10589889D01*
X12370182Y-10589889D02*
X12360658Y-10608936D01*
X12360658Y-10608936D02*
X12351134Y-10618460D01*
X12351134Y-10618460D02*
X12332086Y-10627984D01*
X12332086Y-10627984D02*
X12313039Y-10627984D01*
X12313039Y-10627984D02*
X12293991Y-10618460D01*
X12293991Y-10618460D02*
X12284467Y-10608936D01*
X12284467Y-10608936D02*
X12274943Y-10589889D01*
X12274943Y-10589889D02*
X12265420Y-10551793D01*
X12265420Y-10551793D02*
X12265420Y-10504174D01*
X12265420Y-10504174D02*
X12274943Y-10466079D01*
X12274943Y-10466079D02*
X12284467Y-10447031D01*
X12284467Y-10447031D02*
X12293991Y-10437508D01*
X12293991Y-10437508D02*
X12313039Y-10427984D01*
X12465420Y-10627984D02*
X12465420Y-10494650D01*
X12465420Y-10513698D02*
X12474943Y-10504174D01*
X12474943Y-10504174D02*
X12493991Y-10494650D01*
X12493991Y-10494650D02*
X12522563Y-10494650D01*
X12522563Y-10494650D02*
X12541610Y-10504174D01*
X12541610Y-10504174D02*
X12551134Y-10523222D01*
X12551134Y-10523222D02*
X12551134Y-10627984D01*
X12551134Y-10523222D02*
X12560658Y-10504174D01*
X12560658Y-10504174D02*
X12579705Y-10494650D01*
X12579705Y-10494650D02*
X12608277Y-10494650D01*
X12608277Y-10494650D02*
X12627324Y-10504174D01*
X12627324Y-10504174D02*
X12636848Y-10523222D01*
X12636848Y-10523222D02*
X12636848Y-10627984D01*
X12732086Y-10627984D02*
X12732086Y-10494650D01*
X12732086Y-10513698D02*
X12741610Y-10504174D01*
X12741610Y-10504174D02*
X12760658Y-10494650D01*
X12760658Y-10494650D02*
X12789229Y-10494650D01*
X12789229Y-10494650D02*
X12808277Y-10504174D01*
X12808277Y-10504174D02*
X12817801Y-10523222D01*
X12817801Y-10523222D02*
X12817801Y-10627984D01*
X12817801Y-10523222D02*
X12827324Y-10504174D01*
X12827324Y-10504174D02*
X12846372Y-10494650D01*
X12846372Y-10494650D02*
X12874943Y-10494650D01*
X12874943Y-10494650D02*
X12893991Y-10504174D01*
X12893991Y-10504174D02*
X12903515Y-10523222D01*
X12903515Y-10523222D02*
X12903515Y-10627984D01*
X13293991Y-10418460D02*
X13122563Y-10675603D01*
X13551134Y-10427984D02*
X13570182Y-10427984D01*
X13570182Y-10427984D02*
X13589229Y-10437508D01*
X13589229Y-10437508D02*
X13598753Y-10447031D01*
X13598753Y-10447031D02*
X13608277Y-10466079D01*
X13608277Y-10466079D02*
X13617801Y-10504174D01*
X13617801Y-10504174D02*
X13617801Y-10551793D01*
X13617801Y-10551793D02*
X13608277Y-10589889D01*
X13608277Y-10589889D02*
X13598753Y-10608936D01*
X13598753Y-10608936D02*
X13589229Y-10618460D01*
X13589229Y-10618460D02*
X13570182Y-10627984D01*
X13570182Y-10627984D02*
X13551134Y-10627984D01*
X13551134Y-10627984D02*
X13532086Y-10618460D01*
X13532086Y-10618460D02*
X13522563Y-10608936D01*
X13522563Y-10608936D02*
X13513039Y-10589889D01*
X13513039Y-10589889D02*
X13503515Y-10551793D01*
X13503515Y-10551793D02*
X13503515Y-10504174D01*
X13503515Y-10504174D02*
X13513039Y-10466079D01*
X13513039Y-10466079D02*
X13522563Y-10447031D01*
X13522563Y-10447031D02*
X13532086Y-10437508D01*
X13532086Y-10437508D02*
X13551134Y-10427984D01*
X13703515Y-10608936D02*
X13713039Y-10618460D01*
X13713039Y-10618460D02*
X13703515Y-10627984D01*
X13703515Y-10627984D02*
X13693991Y-10618460D01*
X13693991Y-10618460D02*
X13703515Y-10608936D01*
X13703515Y-10608936D02*
X13703515Y-10627984D01*
X13836848Y-10427984D02*
X13855896Y-10427984D01*
X13855896Y-10427984D02*
X13874944Y-10437508D01*
X13874944Y-10437508D02*
X13884467Y-10447031D01*
X13884467Y-10447031D02*
X13893991Y-10466079D01*
X13893991Y-10466079D02*
X13903515Y-10504174D01*
X13903515Y-10504174D02*
X13903515Y-10551793D01*
X13903515Y-10551793D02*
X13893991Y-10589889D01*
X13893991Y-10589889D02*
X13884467Y-10608936D01*
X13884467Y-10608936D02*
X13874944Y-10618460D01*
X13874944Y-10618460D02*
X13855896Y-10627984D01*
X13855896Y-10627984D02*
X13836848Y-10627984D01*
X13836848Y-10627984D02*
X13817801Y-10618460D01*
X13817801Y-10618460D02*
X13808277Y-10608936D01*
X13808277Y-10608936D02*
X13798753Y-10589889D01*
X13798753Y-10589889D02*
X13789229Y-10551793D01*
X13789229Y-10551793D02*
X13789229Y-10504174D01*
X13789229Y-10504174D02*
X13798753Y-10466079D01*
X13798753Y-10466079D02*
X13808277Y-10447031D01*
X13808277Y-10447031D02*
X13817801Y-10437508D01*
X13817801Y-10437508D02*
X13836848Y-10427984D01*
X14093991Y-10627984D02*
X13979706Y-10627984D01*
X14036848Y-10627984D02*
X14036848Y-10427984D01*
X14036848Y-10427984D02*
X14017801Y-10456555D01*
X14017801Y-10456555D02*
X13998753Y-10475603D01*
X13998753Y-10475603D02*
X13979706Y-10485127D01*
X14284467Y-10627984D02*
X14170182Y-10627984D01*
X14227325Y-10627984D02*
X14227325Y-10427984D01*
X14227325Y-10427984D02*
X14208277Y-10456555D01*
X14208277Y-10456555D02*
X14189229Y-10475603D01*
X14189229Y-10475603D02*
X14170182Y-10485127D01*
X14398753Y-10513698D02*
X14379706Y-10504174D01*
X14379706Y-10504174D02*
X14370182Y-10494650D01*
X14370182Y-10494650D02*
X14360658Y-10475603D01*
X14360658Y-10475603D02*
X14360658Y-10466079D01*
X14360658Y-10466079D02*
X14370182Y-10447031D01*
X14370182Y-10447031D02*
X14379706Y-10437508D01*
X14379706Y-10437508D02*
X14398753Y-10427984D01*
X14398753Y-10427984D02*
X14436848Y-10427984D01*
X14436848Y-10427984D02*
X14455896Y-10437508D01*
X14455896Y-10437508D02*
X14465420Y-10447031D01*
X14465420Y-10447031D02*
X14474944Y-10466079D01*
X14474944Y-10466079D02*
X14474944Y-10475603D01*
X14474944Y-10475603D02*
X14465420Y-10494650D01*
X14465420Y-10494650D02*
X14455896Y-10504174D01*
X14455896Y-10504174D02*
X14436848Y-10513698D01*
X14436848Y-10513698D02*
X14398753Y-10513698D01*
X14398753Y-10513698D02*
X14379706Y-10523222D01*
X14379706Y-10523222D02*
X14370182Y-10532746D01*
X14370182Y-10532746D02*
X14360658Y-10551793D01*
X14360658Y-10551793D02*
X14360658Y-10589889D01*
X14360658Y-10589889D02*
X14370182Y-10608936D01*
X14370182Y-10608936D02*
X14379706Y-10618460D01*
X14379706Y-10618460D02*
X14398753Y-10627984D01*
X14398753Y-10627984D02*
X14436848Y-10627984D01*
X14436848Y-10627984D02*
X14455896Y-10618460D01*
X14455896Y-10618460D02*
X14465420Y-10608936D01*
X14465420Y-10608936D02*
X14474944Y-10589889D01*
X14474944Y-10589889D02*
X14474944Y-10551793D01*
X14474944Y-10551793D02*
X14465420Y-10532746D01*
X14465420Y-10532746D02*
X14455896Y-10523222D01*
X14455896Y-10523222D02*
X14436848Y-10513698D01*
X14551134Y-10427984D02*
X14551134Y-10466079D01*
X14627325Y-10427984D02*
X14627325Y-10466079D01*
X14922563Y-10704174D02*
X14913039Y-10694650D01*
X14913039Y-10694650D02*
X14893991Y-10666079D01*
X14893991Y-10666079D02*
X14884468Y-10647031D01*
X14884468Y-10647031D02*
X14874944Y-10618460D01*
X14874944Y-10618460D02*
X14865420Y-10570841D01*
X14865420Y-10570841D02*
X14865420Y-10532746D01*
X14865420Y-10532746D02*
X14874944Y-10485127D01*
X14874944Y-10485127D02*
X14884468Y-10456555D01*
X14884468Y-10456555D02*
X14893991Y-10437508D01*
X14893991Y-10437508D02*
X14913039Y-10408936D01*
X14913039Y-10408936D02*
X14922563Y-10399412D01*
X15084468Y-10494650D02*
X15084468Y-10627984D01*
X15036848Y-10418460D02*
X14989229Y-10561317D01*
X14989229Y-10561317D02*
X15113039Y-10561317D01*
X15227325Y-10427984D02*
X15246372Y-10427984D01*
X15246372Y-10427984D02*
X15265420Y-10437508D01*
X15265420Y-10437508D02*
X15274944Y-10447031D01*
X15274944Y-10447031D02*
X15284468Y-10466079D01*
X15284468Y-10466079D02*
X15293991Y-10504174D01*
X15293991Y-10504174D02*
X15293991Y-10551793D01*
X15293991Y-10551793D02*
X15284468Y-10589889D01*
X15284468Y-10589889D02*
X15274944Y-10608936D01*
X15274944Y-10608936D02*
X15265420Y-10618460D01*
X15265420Y-10618460D02*
X15246372Y-10627984D01*
X15246372Y-10627984D02*
X15227325Y-10627984D01*
X15227325Y-10627984D02*
X15208277Y-10618460D01*
X15208277Y-10618460D02*
X15198753Y-10608936D01*
X15198753Y-10608936D02*
X15189229Y-10589889D01*
X15189229Y-10589889D02*
X15179706Y-10551793D01*
X15179706Y-10551793D02*
X15179706Y-10504174D01*
X15179706Y-10504174D02*
X15189229Y-10466079D01*
X15189229Y-10466079D02*
X15198753Y-10447031D01*
X15198753Y-10447031D02*
X15208277Y-10437508D01*
X15208277Y-10437508D02*
X15227325Y-10427984D01*
X15532087Y-10627984D02*
X15532087Y-10427984D01*
X15617801Y-10627984D02*
X15617801Y-10523222D01*
X15617801Y-10523222D02*
X15608277Y-10504174D01*
X15608277Y-10504174D02*
X15589230Y-10494650D01*
X15589230Y-10494650D02*
X15560658Y-10494650D01*
X15560658Y-10494650D02*
X15541610Y-10504174D01*
X15541610Y-10504174D02*
X15532087Y-10513698D01*
X15741610Y-10627984D02*
X15722563Y-10618460D01*
X15722563Y-10618460D02*
X15713039Y-10608936D01*
X15713039Y-10608936D02*
X15703515Y-10589889D01*
X15703515Y-10589889D02*
X15703515Y-10532746D01*
X15703515Y-10532746D02*
X15713039Y-10513698D01*
X15713039Y-10513698D02*
X15722563Y-10504174D01*
X15722563Y-10504174D02*
X15741610Y-10494650D01*
X15741610Y-10494650D02*
X15770182Y-10494650D01*
X15770182Y-10494650D02*
X15789230Y-10504174D01*
X15789230Y-10504174D02*
X15798753Y-10513698D01*
X15798753Y-10513698D02*
X15808277Y-10532746D01*
X15808277Y-10532746D02*
X15808277Y-10589889D01*
X15808277Y-10589889D02*
X15798753Y-10608936D01*
X15798753Y-10608936D02*
X15789230Y-10618460D01*
X15789230Y-10618460D02*
X15770182Y-10627984D01*
X15770182Y-10627984D02*
X15741610Y-10627984D01*
X15922563Y-10627984D02*
X15903515Y-10618460D01*
X15903515Y-10618460D02*
X15893991Y-10599412D01*
X15893991Y-10599412D02*
X15893991Y-10427984D01*
X16074944Y-10618460D02*
X16055896Y-10627984D01*
X16055896Y-10627984D02*
X16017801Y-10627984D01*
X16017801Y-10627984D02*
X15998753Y-10618460D01*
X15998753Y-10618460D02*
X15989230Y-10599412D01*
X15989230Y-10599412D02*
X15989230Y-10523222D01*
X15989230Y-10523222D02*
X15998753Y-10504174D01*
X15998753Y-10504174D02*
X16017801Y-10494650D01*
X16017801Y-10494650D02*
X16055896Y-10494650D01*
X16055896Y-10494650D02*
X16074944Y-10504174D01*
X16074944Y-10504174D02*
X16084468Y-10523222D01*
X16084468Y-10523222D02*
X16084468Y-10542270D01*
X16084468Y-10542270D02*
X15989230Y-10561317D01*
X16160658Y-10618460D02*
X16179706Y-10627984D01*
X16179706Y-10627984D02*
X16217801Y-10627984D01*
X16217801Y-10627984D02*
X16236849Y-10618460D01*
X16236849Y-10618460D02*
X16246372Y-10599412D01*
X16246372Y-10599412D02*
X16246372Y-10589889D01*
X16246372Y-10589889D02*
X16236849Y-10570841D01*
X16236849Y-10570841D02*
X16217801Y-10561317D01*
X16217801Y-10561317D02*
X16189230Y-10561317D01*
X16189230Y-10561317D02*
X16170182Y-10551793D01*
X16170182Y-10551793D02*
X16160658Y-10532746D01*
X16160658Y-10532746D02*
X16160658Y-10523222D01*
X16160658Y-10523222D02*
X16170182Y-10504174D01*
X16170182Y-10504174D02*
X16189230Y-10494650D01*
X16189230Y-10494650D02*
X16217801Y-10494650D01*
X16217801Y-10494650D02*
X16236849Y-10504174D01*
X16313039Y-10704174D02*
X16322563Y-10694650D01*
X16322563Y-10694650D02*
X16341611Y-10666079D01*
X16341611Y-10666079D02*
X16351134Y-10647031D01*
X16351134Y-10647031D02*
X16360658Y-10618460D01*
X16360658Y-10618460D02*
X16370182Y-10570841D01*
X16370182Y-10570841D02*
X16370182Y-10532746D01*
X16370182Y-10532746D02*
X16360658Y-10485127D01*
X16360658Y-10485127D02*
X16351134Y-10456555D01*
X16351134Y-10456555D02*
X16341611Y-10437508D01*
X16341611Y-10437508D02*
X16322563Y-10408936D01*
X16322563Y-10408936D02*
X16313039Y-10399412D01*
D12*
X11322500Y-10775500D02*
X11322500Y-10825500D01*
X11297500Y-10800500D02*
X11347500Y-10800500D01*
D11*
X11646372Y-10691984D02*
X11665420Y-10691984D01*
X11665420Y-10691984D02*
X11684467Y-10701508D01*
X11684467Y-10701508D02*
X11693991Y-10711031D01*
X11693991Y-10711031D02*
X11703515Y-10730079D01*
X11703515Y-10730079D02*
X11713039Y-10768174D01*
X11713039Y-10768174D02*
X11713039Y-10815793D01*
X11713039Y-10815793D02*
X11703515Y-10853889D01*
X11703515Y-10853889D02*
X11693991Y-10872936D01*
X11693991Y-10872936D02*
X11684467Y-10882460D01*
X11684467Y-10882460D02*
X11665420Y-10891984D01*
X11665420Y-10891984D02*
X11646372Y-10891984D01*
X11646372Y-10891984D02*
X11627324Y-10882460D01*
X11627324Y-10882460D02*
X11617801Y-10872936D01*
X11617801Y-10872936D02*
X11608277Y-10853889D01*
X11608277Y-10853889D02*
X11598753Y-10815793D01*
X11598753Y-10815793D02*
X11598753Y-10768174D01*
X11598753Y-10768174D02*
X11608277Y-10730079D01*
X11608277Y-10730079D02*
X11617801Y-10711031D01*
X11617801Y-10711031D02*
X11627324Y-10701508D01*
X11627324Y-10701508D02*
X11646372Y-10691984D01*
X11798753Y-10872936D02*
X11808277Y-10882460D01*
X11808277Y-10882460D02*
X11798753Y-10891984D01*
X11798753Y-10891984D02*
X11789229Y-10882460D01*
X11789229Y-10882460D02*
X11798753Y-10872936D01*
X11798753Y-10872936D02*
X11798753Y-10891984D01*
X11989229Y-10691984D02*
X11893991Y-10691984D01*
X11893991Y-10691984D02*
X11884467Y-10787222D01*
X11884467Y-10787222D02*
X11893991Y-10777698D01*
X11893991Y-10777698D02*
X11913039Y-10768174D01*
X11913039Y-10768174D02*
X11960658Y-10768174D01*
X11960658Y-10768174D02*
X11979705Y-10777698D01*
X11979705Y-10777698D02*
X11989229Y-10787222D01*
X11989229Y-10787222D02*
X11998753Y-10806270D01*
X11998753Y-10806270D02*
X11998753Y-10853889D01*
X11998753Y-10853889D02*
X11989229Y-10872936D01*
X11989229Y-10872936D02*
X11979705Y-10882460D01*
X11979705Y-10882460D02*
X11960658Y-10891984D01*
X11960658Y-10891984D02*
X11913039Y-10891984D01*
X11913039Y-10891984D02*
X11893991Y-10882460D01*
X11893991Y-10882460D02*
X11884467Y-10872936D01*
X12122562Y-10691984D02*
X12141610Y-10691984D01*
X12141610Y-10691984D02*
X12160658Y-10701508D01*
X12160658Y-10701508D02*
X12170182Y-10711031D01*
X12170182Y-10711031D02*
X12179705Y-10730079D01*
X12179705Y-10730079D02*
X12189229Y-10768174D01*
X12189229Y-10768174D02*
X12189229Y-10815793D01*
X12189229Y-10815793D02*
X12179705Y-10853889D01*
X12179705Y-10853889D02*
X12170182Y-10872936D01*
X12170182Y-10872936D02*
X12160658Y-10882460D01*
X12160658Y-10882460D02*
X12141610Y-10891984D01*
X12141610Y-10891984D02*
X12122562Y-10891984D01*
X12122562Y-10891984D02*
X12103515Y-10882460D01*
X12103515Y-10882460D02*
X12093991Y-10872936D01*
X12093991Y-10872936D02*
X12084467Y-10853889D01*
X12084467Y-10853889D02*
X12074943Y-10815793D01*
X12074943Y-10815793D02*
X12074943Y-10768174D01*
X12074943Y-10768174D02*
X12084467Y-10730079D01*
X12084467Y-10730079D02*
X12093991Y-10711031D01*
X12093991Y-10711031D02*
X12103515Y-10701508D01*
X12103515Y-10701508D02*
X12122562Y-10691984D01*
X12313039Y-10691984D02*
X12332086Y-10691984D01*
X12332086Y-10691984D02*
X12351134Y-10701508D01*
X12351134Y-10701508D02*
X12360658Y-10711031D01*
X12360658Y-10711031D02*
X12370182Y-10730079D01*
X12370182Y-10730079D02*
X12379705Y-10768174D01*
X12379705Y-10768174D02*
X12379705Y-10815793D01*
X12379705Y-10815793D02*
X12370182Y-10853889D01*
X12370182Y-10853889D02*
X12360658Y-10872936D01*
X12360658Y-10872936D02*
X12351134Y-10882460D01*
X12351134Y-10882460D02*
X12332086Y-10891984D01*
X12332086Y-10891984D02*
X12313039Y-10891984D01*
X12313039Y-10891984D02*
X12293991Y-10882460D01*
X12293991Y-10882460D02*
X12284467Y-10872936D01*
X12284467Y-10872936D02*
X12274943Y-10853889D01*
X12274943Y-10853889D02*
X12265420Y-10815793D01*
X12265420Y-10815793D02*
X12265420Y-10768174D01*
X12265420Y-10768174D02*
X12274943Y-10730079D01*
X12274943Y-10730079D02*
X12284467Y-10711031D01*
X12284467Y-10711031D02*
X12293991Y-10701508D01*
X12293991Y-10701508D02*
X12313039Y-10691984D01*
X12465420Y-10891984D02*
X12465420Y-10758650D01*
X12465420Y-10777698D02*
X12474943Y-10768174D01*
X12474943Y-10768174D02*
X12493991Y-10758650D01*
X12493991Y-10758650D02*
X12522563Y-10758650D01*
X12522563Y-10758650D02*
X12541610Y-10768174D01*
X12541610Y-10768174D02*
X12551134Y-10787222D01*
X12551134Y-10787222D02*
X12551134Y-10891984D01*
X12551134Y-10787222D02*
X12560658Y-10768174D01*
X12560658Y-10768174D02*
X12579705Y-10758650D01*
X12579705Y-10758650D02*
X12608277Y-10758650D01*
X12608277Y-10758650D02*
X12627324Y-10768174D01*
X12627324Y-10768174D02*
X12636848Y-10787222D01*
X12636848Y-10787222D02*
X12636848Y-10891984D01*
X12732086Y-10891984D02*
X12732086Y-10758650D01*
X12732086Y-10777698D02*
X12741610Y-10768174D01*
X12741610Y-10768174D02*
X12760658Y-10758650D01*
X12760658Y-10758650D02*
X12789229Y-10758650D01*
X12789229Y-10758650D02*
X12808277Y-10768174D01*
X12808277Y-10768174D02*
X12817801Y-10787222D01*
X12817801Y-10787222D02*
X12817801Y-10891984D01*
X12817801Y-10787222D02*
X12827324Y-10768174D01*
X12827324Y-10768174D02*
X12846372Y-10758650D01*
X12846372Y-10758650D02*
X12874943Y-10758650D01*
X12874943Y-10758650D02*
X12893991Y-10768174D01*
X12893991Y-10768174D02*
X12903515Y-10787222D01*
X12903515Y-10787222D02*
X12903515Y-10891984D01*
X13293991Y-10682460D02*
X13122563Y-10939603D01*
X13551134Y-10691984D02*
X13570182Y-10691984D01*
X13570182Y-10691984D02*
X13589229Y-10701508D01*
X13589229Y-10701508D02*
X13598753Y-10711031D01*
X13598753Y-10711031D02*
X13608277Y-10730079D01*
X13608277Y-10730079D02*
X13617801Y-10768174D01*
X13617801Y-10768174D02*
X13617801Y-10815793D01*
X13617801Y-10815793D02*
X13608277Y-10853889D01*
X13608277Y-10853889D02*
X13598753Y-10872936D01*
X13598753Y-10872936D02*
X13589229Y-10882460D01*
X13589229Y-10882460D02*
X13570182Y-10891984D01*
X13570182Y-10891984D02*
X13551134Y-10891984D01*
X13551134Y-10891984D02*
X13532086Y-10882460D01*
X13532086Y-10882460D02*
X13522563Y-10872936D01*
X13522563Y-10872936D02*
X13513039Y-10853889D01*
X13513039Y-10853889D02*
X13503515Y-10815793D01*
X13503515Y-10815793D02*
X13503515Y-10768174D01*
X13503515Y-10768174D02*
X13513039Y-10730079D01*
X13513039Y-10730079D02*
X13522563Y-10711031D01*
X13522563Y-10711031D02*
X13532086Y-10701508D01*
X13532086Y-10701508D02*
X13551134Y-10691984D01*
X13703515Y-10872936D02*
X13713039Y-10882460D01*
X13713039Y-10882460D02*
X13703515Y-10891984D01*
X13703515Y-10891984D02*
X13693991Y-10882460D01*
X13693991Y-10882460D02*
X13703515Y-10872936D01*
X13703515Y-10872936D02*
X13703515Y-10891984D01*
X13836848Y-10691984D02*
X13855896Y-10691984D01*
X13855896Y-10691984D02*
X13874944Y-10701508D01*
X13874944Y-10701508D02*
X13884467Y-10711031D01*
X13884467Y-10711031D02*
X13893991Y-10730079D01*
X13893991Y-10730079D02*
X13903515Y-10768174D01*
X13903515Y-10768174D02*
X13903515Y-10815793D01*
X13903515Y-10815793D02*
X13893991Y-10853889D01*
X13893991Y-10853889D02*
X13884467Y-10872936D01*
X13884467Y-10872936D02*
X13874944Y-10882460D01*
X13874944Y-10882460D02*
X13855896Y-10891984D01*
X13855896Y-10891984D02*
X13836848Y-10891984D01*
X13836848Y-10891984D02*
X13817801Y-10882460D01*
X13817801Y-10882460D02*
X13808277Y-10872936D01*
X13808277Y-10872936D02*
X13798753Y-10853889D01*
X13798753Y-10853889D02*
X13789229Y-10815793D01*
X13789229Y-10815793D02*
X13789229Y-10768174D01*
X13789229Y-10768174D02*
X13798753Y-10730079D01*
X13798753Y-10730079D02*
X13808277Y-10711031D01*
X13808277Y-10711031D02*
X13817801Y-10701508D01*
X13817801Y-10701508D02*
X13836848Y-10691984D01*
X14093991Y-10891984D02*
X13979706Y-10891984D01*
X14036848Y-10891984D02*
X14036848Y-10691984D01*
X14036848Y-10691984D02*
X14017801Y-10720555D01*
X14017801Y-10720555D02*
X13998753Y-10739603D01*
X13998753Y-10739603D02*
X13979706Y-10749127D01*
X14189229Y-10891984D02*
X14227325Y-10891984D01*
X14227325Y-10891984D02*
X14246372Y-10882460D01*
X14246372Y-10882460D02*
X14255896Y-10872936D01*
X14255896Y-10872936D02*
X14274944Y-10844365D01*
X14274944Y-10844365D02*
X14284467Y-10806270D01*
X14284467Y-10806270D02*
X14284467Y-10730079D01*
X14284467Y-10730079D02*
X14274944Y-10711031D01*
X14274944Y-10711031D02*
X14265420Y-10701508D01*
X14265420Y-10701508D02*
X14246372Y-10691984D01*
X14246372Y-10691984D02*
X14208277Y-10691984D01*
X14208277Y-10691984D02*
X14189229Y-10701508D01*
X14189229Y-10701508D02*
X14179706Y-10711031D01*
X14179706Y-10711031D02*
X14170182Y-10730079D01*
X14170182Y-10730079D02*
X14170182Y-10777698D01*
X14170182Y-10777698D02*
X14179706Y-10796746D01*
X14179706Y-10796746D02*
X14189229Y-10806270D01*
X14189229Y-10806270D02*
X14208277Y-10815793D01*
X14208277Y-10815793D02*
X14246372Y-10815793D01*
X14246372Y-10815793D02*
X14265420Y-10806270D01*
X14265420Y-10806270D02*
X14274944Y-10796746D01*
X14274944Y-10796746D02*
X14284467Y-10777698D01*
X14351134Y-10691984D02*
X14484467Y-10691984D01*
X14484467Y-10691984D02*
X14398753Y-10891984D01*
X14551134Y-10691984D02*
X14551134Y-10730079D01*
X14627325Y-10691984D02*
X14627325Y-10730079D01*
X14922563Y-10968174D02*
X14913039Y-10958650D01*
X14913039Y-10958650D02*
X14893991Y-10930079D01*
X14893991Y-10930079D02*
X14884468Y-10911031D01*
X14884468Y-10911031D02*
X14874944Y-10882460D01*
X14874944Y-10882460D02*
X14865420Y-10834841D01*
X14865420Y-10834841D02*
X14865420Y-10796746D01*
X14865420Y-10796746D02*
X14874944Y-10749127D01*
X14874944Y-10749127D02*
X14884468Y-10720555D01*
X14884468Y-10720555D02*
X14893991Y-10701508D01*
X14893991Y-10701508D02*
X14913039Y-10672936D01*
X14913039Y-10672936D02*
X14922563Y-10663412D01*
X14979706Y-10691984D02*
X15103515Y-10691984D01*
X15103515Y-10691984D02*
X15036848Y-10768174D01*
X15036848Y-10768174D02*
X15065420Y-10768174D01*
X15065420Y-10768174D02*
X15084468Y-10777698D01*
X15084468Y-10777698D02*
X15093991Y-10787222D01*
X15093991Y-10787222D02*
X15103515Y-10806270D01*
X15103515Y-10806270D02*
X15103515Y-10853889D01*
X15103515Y-10853889D02*
X15093991Y-10872936D01*
X15093991Y-10872936D02*
X15084468Y-10882460D01*
X15084468Y-10882460D02*
X15065420Y-10891984D01*
X15065420Y-10891984D02*
X15008277Y-10891984D01*
X15008277Y-10891984D02*
X14989229Y-10882460D01*
X14989229Y-10882460D02*
X14979706Y-10872936D01*
X15217801Y-10777698D02*
X15198753Y-10768174D01*
X15198753Y-10768174D02*
X15189229Y-10758650D01*
X15189229Y-10758650D02*
X15179706Y-10739603D01*
X15179706Y-10739603D02*
X15179706Y-10730079D01*
X15179706Y-10730079D02*
X15189229Y-10711031D01*
X15189229Y-10711031D02*
X15198753Y-10701508D01*
X15198753Y-10701508D02*
X15217801Y-10691984D01*
X15217801Y-10691984D02*
X15255896Y-10691984D01*
X15255896Y-10691984D02*
X15274944Y-10701508D01*
X15274944Y-10701508D02*
X15284468Y-10711031D01*
X15284468Y-10711031D02*
X15293991Y-10730079D01*
X15293991Y-10730079D02*
X15293991Y-10739603D01*
X15293991Y-10739603D02*
X15284468Y-10758650D01*
X15284468Y-10758650D02*
X15274944Y-10768174D01*
X15274944Y-10768174D02*
X15255896Y-10777698D01*
X15255896Y-10777698D02*
X15217801Y-10777698D01*
X15217801Y-10777698D02*
X15198753Y-10787222D01*
X15198753Y-10787222D02*
X15189229Y-10796746D01*
X15189229Y-10796746D02*
X15179706Y-10815793D01*
X15179706Y-10815793D02*
X15179706Y-10853889D01*
X15179706Y-10853889D02*
X15189229Y-10872936D01*
X15189229Y-10872936D02*
X15198753Y-10882460D01*
X15198753Y-10882460D02*
X15217801Y-10891984D01*
X15217801Y-10891984D02*
X15255896Y-10891984D01*
X15255896Y-10891984D02*
X15274944Y-10882460D01*
X15274944Y-10882460D02*
X15284468Y-10872936D01*
X15284468Y-10872936D02*
X15293991Y-10853889D01*
X15293991Y-10853889D02*
X15293991Y-10815793D01*
X15293991Y-10815793D02*
X15284468Y-10796746D01*
X15284468Y-10796746D02*
X15274944Y-10787222D01*
X15274944Y-10787222D02*
X15255896Y-10777698D01*
X15532087Y-10891984D02*
X15532087Y-10691984D01*
X15617801Y-10891984D02*
X15617801Y-10787222D01*
X15617801Y-10787222D02*
X15608277Y-10768174D01*
X15608277Y-10768174D02*
X15589230Y-10758650D01*
X15589230Y-10758650D02*
X15560658Y-10758650D01*
X15560658Y-10758650D02*
X15541610Y-10768174D01*
X15541610Y-10768174D02*
X15532087Y-10777698D01*
X15741610Y-10891984D02*
X15722563Y-10882460D01*
X15722563Y-10882460D02*
X15713039Y-10872936D01*
X15713039Y-10872936D02*
X15703515Y-10853889D01*
X15703515Y-10853889D02*
X15703515Y-10796746D01*
X15703515Y-10796746D02*
X15713039Y-10777698D01*
X15713039Y-10777698D02*
X15722563Y-10768174D01*
X15722563Y-10768174D02*
X15741610Y-10758650D01*
X15741610Y-10758650D02*
X15770182Y-10758650D01*
X15770182Y-10758650D02*
X15789230Y-10768174D01*
X15789230Y-10768174D02*
X15798753Y-10777698D01*
X15798753Y-10777698D02*
X15808277Y-10796746D01*
X15808277Y-10796746D02*
X15808277Y-10853889D01*
X15808277Y-10853889D02*
X15798753Y-10872936D01*
X15798753Y-10872936D02*
X15789230Y-10882460D01*
X15789230Y-10882460D02*
X15770182Y-10891984D01*
X15770182Y-10891984D02*
X15741610Y-10891984D01*
X15922563Y-10891984D02*
X15903515Y-10882460D01*
X15903515Y-10882460D02*
X15893991Y-10863412D01*
X15893991Y-10863412D02*
X15893991Y-10691984D01*
X16074944Y-10882460D02*
X16055896Y-10891984D01*
X16055896Y-10891984D02*
X16017801Y-10891984D01*
X16017801Y-10891984D02*
X15998753Y-10882460D01*
X15998753Y-10882460D02*
X15989230Y-10863412D01*
X15989230Y-10863412D02*
X15989230Y-10787222D01*
X15989230Y-10787222D02*
X15998753Y-10768174D01*
X15998753Y-10768174D02*
X16017801Y-10758650D01*
X16017801Y-10758650D02*
X16055896Y-10758650D01*
X16055896Y-10758650D02*
X16074944Y-10768174D01*
X16074944Y-10768174D02*
X16084468Y-10787222D01*
X16084468Y-10787222D02*
X16084468Y-10806270D01*
X16084468Y-10806270D02*
X15989230Y-10825317D01*
X16160658Y-10882460D02*
X16179706Y-10891984D01*
X16179706Y-10891984D02*
X16217801Y-10891984D01*
X16217801Y-10891984D02*
X16236849Y-10882460D01*
X16236849Y-10882460D02*
X16246372Y-10863412D01*
X16246372Y-10863412D02*
X16246372Y-10853889D01*
X16246372Y-10853889D02*
X16236849Y-10834841D01*
X16236849Y-10834841D02*
X16217801Y-10825317D01*
X16217801Y-10825317D02*
X16189230Y-10825317D01*
X16189230Y-10825317D02*
X16170182Y-10815793D01*
X16170182Y-10815793D02*
X16160658Y-10796746D01*
X16160658Y-10796746D02*
X16160658Y-10787222D01*
X16160658Y-10787222D02*
X16170182Y-10768174D01*
X16170182Y-10768174D02*
X16189230Y-10758650D01*
X16189230Y-10758650D02*
X16217801Y-10758650D01*
X16217801Y-10758650D02*
X16236849Y-10768174D01*
X16313039Y-10968174D02*
X16322563Y-10958650D01*
X16322563Y-10958650D02*
X16341611Y-10930079D01*
X16341611Y-10930079D02*
X16351134Y-10911031D01*
X16351134Y-10911031D02*
X16360658Y-10882460D01*
X16360658Y-10882460D02*
X16370182Y-10834841D01*
X16370182Y-10834841D02*
X16370182Y-10796746D01*
X16370182Y-10796746D02*
X16360658Y-10749127D01*
X16360658Y-10749127D02*
X16351134Y-10720555D01*
X16351134Y-10720555D02*
X16341611Y-10701508D01*
X16341611Y-10701508D02*
X16322563Y-10672936D01*
X16322563Y-10672936D02*
X16313039Y-10663412D01*
M02*
