M48
; DRILL file {KiCad 8.0.7} date 2025-03-21T18:13:17+0530
; FORMAT={-:-/ absolute / inch / decimal}
; #@! TF.CreationDate,2025-03-21T18:13:17+05:30
; #@! TF.GenerationSoftware,Kicad,Pcbnew,8.0.7
; #@! TF.FileFunction,Plated,1,4,PTH
FMAT,2
INCH
; #@! TA.AperFunction,Plated,PTH,ViaDrill
T1C0.0079
; #@! TA.AperFunction,Plated,PTH,ViaDrill
T2C0.0118
; #@! TA.AperFunction,Plated,PTH,ComponentDrill
T3C0.0197
%
G90
G05
T1
X4.5276Y-3.0709
X4.5394Y-3.7205
X4.5394Y-3.7402
X4.5394Y-3.7598
X4.5591Y-3.0709
X4.5669Y-3.7008
X4.5669Y-3.7205
X4.5669Y-3.7402
X4.5906Y-3.0709
X4.5913Y-3.4882
X4.6098Y-3.4882
X4.6177Y-3.3357
X4.6181Y-3.3534
X4.622Y-3.0709
X4.6262Y-3.3202
X4.6276Y-3.4882
X4.6417Y-3.2795
X4.6417Y-3.3059
X4.6453Y-3.4882
X4.6458Y-3.2538
X4.6772Y-3.0709
X4.6791Y-3.4882
X4.6969Y-3.2097
X4.7006Y-3.1507
X4.702Y-3.5094
X4.7034Y-3.1706
X4.7047Y-3.1335
X4.7079Y-3.1946
X4.7087Y-3.0709
X4.7167Y-3.5474
X4.7205Y-3.5701
X4.7402Y-3.0709
X4.7559Y-3.6549
X4.7717Y-3.0709
X4.7764Y-3.5929
X4.8Y-3.1276
X4.8031Y-3.0709
X4.8059Y-3.5701
X4.8063Y-3.6543
X4.8275Y-3.6997
X4.8346Y-3.0709
X4.836Y-3.5433
X4.8622Y-3.1181
X4.8661Y-3.0709
X4.8661Y-3.5496
X4.878Y-3.1063
X4.878Y-3.1299
X4.8807Y-3.5339
X4.8882Y-3.5917
X4.8976Y-3.0709
X4.9181Y-3.5071
X4.9291Y-3.0709
X4.9398Y-3.3531
X4.9488Y-3.2165
X4.9575Y-3.4504
X4.9597Y-3.3689
X4.9606Y-3.0709
X4.9628Y-3.4299
X4.968Y-3.3916
X4.968Y-3.413
X4.9803Y-3.1969
X4.9843Y-3.1496
X4.9921Y-3.0709
X4.9921Y-3.6417
X4.9925Y-3.7049
X5.0Y-3.2047
X5.0079Y-3.1496
X5.0197Y-3.6535
X5.0354Y-3.5945
X5.0354Y-3.6181
X5.0354Y-3.7205
X5.0354Y-3.7441
X5.0433Y-3.2402
X5.0433Y-3.2638
X5.0433Y-3.6535
X5.0512Y-3.1969
X5.0591Y-3.0827
X5.0591Y-3.1063
X5.0591Y-3.1299
X5.0591Y-3.1535
X5.0591Y-3.5945
X5.0591Y-3.6181
X5.0591Y-3.7205
X5.0591Y-3.7441
X5.0669Y-3.6535
X5.0827Y-3.0827
X5.0827Y-3.1063
X5.0827Y-3.1299
X5.0827Y-3.1535
X5.0827Y-3.5945
X5.0827Y-3.6181
X5.0827Y-3.7205
X5.0827Y-3.7441
X5.0827Y-3.7677
X5.0906Y-3.2362
X5.0906Y-3.6535
X5.1063Y-3.1063
X5.1063Y-3.1299
X5.1063Y-3.1535
X5.1063Y-3.1772
X5.1063Y-3.2165
X5.1063Y-3.5945
X5.1063Y-3.6181
X5.1063Y-3.7441
X5.1063Y-3.7677
X5.1142Y-3.6535
T2
X4.5941Y-3.0921
X4.6026Y-3.1912
X4.7244Y-3.2874
X4.7244Y-3.3189
X4.7244Y-3.3504
X4.7244Y-3.378
X4.7244Y-3.4055
X4.7244Y-3.4331
X4.7598Y-3.2874
X4.7598Y-3.3189
X4.7598Y-3.3504
X4.7598Y-3.378
X4.7598Y-3.4055
X4.7598Y-3.4331
X4.7992Y-3.2874
X4.7992Y-3.3189
X4.7992Y-3.3504
X4.7992Y-3.378
X4.7992Y-3.4055
X4.7992Y-3.4331
X4.8307Y-3.2874
X4.8307Y-3.3189
X4.8307Y-3.3504
X4.8307Y-3.378
X4.8307Y-3.4055
X4.8307Y-3.4331
X4.8374Y-3.1894
X4.8617Y-3.1457
X4.8661Y-3.2874
X4.8661Y-3.3189
X4.8661Y-3.3504
X4.8661Y-3.378
X4.8661Y-3.4055
X4.8661Y-3.4331
X4.9102Y-3.2224
X4.9587Y-3.4756
X4.9626Y-3.3008
X5.0463Y-3.3866
X5.102Y-3.0539
X5.1142Y-3.0837
T3
X4.4677Y-3.0843
X4.4677Y-3.1343
X4.4677Y-3.1843
X4.4677Y-3.2343
X4.4677Y-3.2843
X4.4677Y-3.3343
X4.4677Y-3.3843
X4.4677Y-3.4343
X4.4677Y-3.4843
X4.4677Y-3.5343
X4.4677Y-3.5843
X4.4677Y-3.6343
X4.4677Y-3.6843
X4.4677Y-3.7343
X4.5917Y-3.7921
X4.6417Y-3.7921
X4.6917Y-3.7921
X4.7417Y-3.7921
X4.7917Y-3.7921
X4.8417Y-3.7921
X4.8917Y-3.7921
X4.9417Y-3.7921
X4.9917Y-3.7921
X5.0417Y-3.7921
X5.178Y-3.0846
X5.178Y-3.1346
X5.178Y-3.1846
X5.178Y-3.2346
X5.178Y-3.2846
X5.178Y-3.3346
X5.178Y-3.3846
X5.178Y-3.4346
X5.178Y-3.4846
X5.178Y-3.5346
X5.178Y-3.5846
X5.178Y-3.6346
X5.178Y-3.6846
X5.178Y-3.7346
M30
