%TF.GenerationSoftware,KiCad,Pcbnew,8.0.7*%
%TF.CreationDate,2025-03-21T18:26:34+05:30*%
%TF.ProjectId,ESP32,45535033-322e-46b6-9963-61645f706362,rev?*%
%TF.SameCoordinates,Original*%
%TF.FileFunction,Drillmap*%
%TF.FilePolarity,Positive*%
%FSLAX45Y45*%
G04 Gerber Fmt 4.5, Leading zero omitted, Abs format (unit mm)*
G04 Created by KiCad (PCBNEW 8.0.7) date 2025-03-21 18:26:34*
%MOMM*%
%LPD*%
G01*
G04 APERTURE LIST*
%ADD10C,0.050000*%
%ADD11C,0.200000*%
G04 APERTURE END LIST*
D10*
X11350000Y-7080000D02*
X13150000Y-7080000D01*
X13150000Y-9630000D01*
X11350000Y-9630000D01*
X11350000Y-7080000D01*
D11*
X11608277Y-9943984D02*
X11608277Y-9743984D01*
X11608277Y-9743984D02*
X11655896Y-9743984D01*
X11655896Y-9743984D02*
X11684467Y-9753508D01*
X11684467Y-9753508D02*
X11703515Y-9772555D01*
X11703515Y-9772555D02*
X11713039Y-9791603D01*
X11713039Y-9791603D02*
X11722562Y-9829698D01*
X11722562Y-9829698D02*
X11722562Y-9858270D01*
X11722562Y-9858270D02*
X11713039Y-9896365D01*
X11713039Y-9896365D02*
X11703515Y-9915412D01*
X11703515Y-9915412D02*
X11684467Y-9934460D01*
X11684467Y-9934460D02*
X11655896Y-9943984D01*
X11655896Y-9943984D02*
X11608277Y-9943984D01*
X11808277Y-9943984D02*
X11808277Y-9810650D01*
X11808277Y-9848746D02*
X11817801Y-9829698D01*
X11817801Y-9829698D02*
X11827324Y-9820174D01*
X11827324Y-9820174D02*
X11846372Y-9810650D01*
X11846372Y-9810650D02*
X11865420Y-9810650D01*
X11932086Y-9943984D02*
X11932086Y-9810650D01*
X11932086Y-9743984D02*
X11922562Y-9753508D01*
X11922562Y-9753508D02*
X11932086Y-9763031D01*
X11932086Y-9763031D02*
X11941610Y-9753508D01*
X11941610Y-9753508D02*
X11932086Y-9743984D01*
X11932086Y-9743984D02*
X11932086Y-9763031D01*
X12055896Y-9943984D02*
X12036848Y-9934460D01*
X12036848Y-9934460D02*
X12027324Y-9915412D01*
X12027324Y-9915412D02*
X12027324Y-9743984D01*
X12160658Y-9943984D02*
X12141610Y-9934460D01*
X12141610Y-9934460D02*
X12132086Y-9915412D01*
X12132086Y-9915412D02*
X12132086Y-9743984D01*
X12389229Y-9943984D02*
X12389229Y-9743984D01*
X12389229Y-9743984D02*
X12455896Y-9886841D01*
X12455896Y-9886841D02*
X12522562Y-9743984D01*
X12522562Y-9743984D02*
X12522562Y-9943984D01*
X12703515Y-9943984D02*
X12703515Y-9839222D01*
X12703515Y-9839222D02*
X12693991Y-9820174D01*
X12693991Y-9820174D02*
X12674943Y-9810650D01*
X12674943Y-9810650D02*
X12636848Y-9810650D01*
X12636848Y-9810650D02*
X12617801Y-9820174D01*
X12703515Y-9934460D02*
X12684467Y-9943984D01*
X12684467Y-9943984D02*
X12636848Y-9943984D01*
X12636848Y-9943984D02*
X12617801Y-9934460D01*
X12617801Y-9934460D02*
X12608277Y-9915412D01*
X12608277Y-9915412D02*
X12608277Y-9896365D01*
X12608277Y-9896365D02*
X12617801Y-9877317D01*
X12617801Y-9877317D02*
X12636848Y-9867793D01*
X12636848Y-9867793D02*
X12684467Y-9867793D01*
X12684467Y-9867793D02*
X12703515Y-9858270D01*
X12798753Y-9810650D02*
X12798753Y-10010650D01*
X12798753Y-9820174D02*
X12817801Y-9810650D01*
X12817801Y-9810650D02*
X12855896Y-9810650D01*
X12855896Y-9810650D02*
X12874943Y-9820174D01*
X12874943Y-9820174D02*
X12884467Y-9829698D01*
X12884467Y-9829698D02*
X12893991Y-9848746D01*
X12893991Y-9848746D02*
X12893991Y-9905889D01*
X12893991Y-9905889D02*
X12884467Y-9924936D01*
X12884467Y-9924936D02*
X12874943Y-9934460D01*
X12874943Y-9934460D02*
X12855896Y-9943984D01*
X12855896Y-9943984D02*
X12817801Y-9943984D01*
X12817801Y-9943984D02*
X12798753Y-9934460D01*
X12979705Y-9924936D02*
X12989229Y-9934460D01*
X12989229Y-9934460D02*
X12979705Y-9943984D01*
X12979705Y-9943984D02*
X12970182Y-9934460D01*
X12970182Y-9934460D02*
X12979705Y-9924936D01*
X12979705Y-9924936D02*
X12979705Y-9943984D01*
X12979705Y-9820174D02*
X12989229Y-9829698D01*
X12989229Y-9829698D02*
X12979705Y-9839222D01*
X12979705Y-9839222D02*
X12970182Y-9829698D01*
X12970182Y-9829698D02*
X12979705Y-9820174D01*
X12979705Y-9820174D02*
X12979705Y-9839222D01*
M02*
